<svg xmlns="http://www.w3.org/2000/svg" viewBox="0 0 586 462"
     width="586" height="462" role="img"
     aria-label="Facet grid of V1.1 T_eval sweep statistics">
<rect width="100%" height="100%" fill="#ffffff"/>
<style>
  text { font-family: Inter, ui-sans-serif, system-ui, -apple-system, sans-serif; }
</style>
<text x="34.0" y="34.0" font-size="20" font-weight="700" fill="#0f172a" text-anchor="start">V1.1 T_eval Sweep: Baseline and Trained Models</text>
<text x="34.0" y="58.0" font-size="12" font-weight="400" fill="#64748b" text-anchor="start">Lines show rates with 95% CIs. Accuracy is the 300-budget comparison; health facets use each run&#x27;s available prediction set.</text>
<line x1="18.0" y1="76.0" x2="39.0" y2="76.0" stroke="#2563eb" stroke-width="2"/>
<circle cx="29.0" cy="76.0" r="4.2" fill="#2563eb" stroke="#ffffff" stroke-width="1.3"/>
<text x="43.0" y="80.0" font-size="11" font-weight="600" fill="#0f172a" text-anchor="start">Baseline</text>
<line x1="156.0" y1="76.0" x2="177.0" y2="76.0" stroke="#c2410c" stroke-width="2"/>
<polygon points="167.0,70.7 172.3,76.0 167.0,81.3 161.7,76.0" fill="#c2410c" stroke="#ffffff" stroke-width="1.2"/>
<text x="181.0" y="80.0" font-size="11" font-weight="600" fill="#0f172a" text-anchor="start">T_train=1.1</text>
<line x1="294.0" y1="76.0" x2="315.0" y2="76.0" stroke="#7c3aed" stroke-width="2"/>
<rect x="300.7" y="71.7" width="8.6" height="8.6" fill="#7c3aed" stroke="#ffffff" stroke-width="1.2"/>
<text x="319.0" y="80.0" font-size="11" font-weight="600" fill="#0f172a" text-anchor="start">T_train=1.3</text>
<line x1="432.0" y1="76.0" x2="453.0" y2="76.0" stroke="#047857" stroke-width="2"/>
<polygon points="443.0,70.8 448.0,80.4 438.0,80.4" fill="#047857" stroke="#ffffff" stroke-width="1.2"/>
<text x="457.0" y="80.0" font-size="11" font-weight="600" fill="#0f172a" text-anchor="start">topk=5</text>
<text x="180.0" y="112.0" font-size="13" font-weight="700" fill="#0f172a" text-anchor="middle">Accuracy 300</text>
<rect x="74.0" y="124.0" width="212.0" height="215.0" fill="#ffffff" stroke="#e2e8f0" stroke-width="1"/>
<line x1="74.0" y1="339.0" x2="286.0" y2="339.0" stroke="#e2e8f0" stroke-width="1"/>
<text x="66.0" y="343.0" font-size="10" font-weight="400" fill="#64748b" text-anchor="end">0</text>
<line x1="74.0" y1="285.2" x2="286.0" y2="285.2" stroke="#e2e8f0" stroke-width="1"/>
<text x="66.0" y="289.2" font-size="10" font-weight="400" fill="#64748b" text-anchor="end">25</text>
<line x1="74.0" y1="231.5" x2="286.0" y2="231.5" stroke="#e2e8f0" stroke-width="1"/>
<text x="66.0" y="235.5" font-size="10" font-weight="400" fill="#64748b" text-anchor="end">50</text>
<line x1="74.0" y1="177.8" x2="286.0" y2="177.8" stroke="#e2e8f0" stroke-width="1"/>
<text x="66.0" y="181.8" font-size="10" font-weight="400" fill="#64748b" text-anchor="end">75</text>
<line x1="74.0" y1="124.0" x2="286.0" y2="124.0" stroke="#e2e8f0" stroke-width="1"/>
<text x="66.0" y="128.0" font-size="10" font-weight="400" fill="#64748b" text-anchor="end">100</text>
<line x1="74.0" y1="339.0" x2="286.0" y2="339.0" stroke="#475569" stroke-width="1.2"/>
<line x1="74.0" y1="124.0" x2="74.0" y2="339.0" stroke="#475569" stroke-width="1.2"/>
<line x1="84.6" y1="339.0" x2="84.6" y2="344.0" stroke="#475569" stroke-width="1"/>
<text x="84.6" y="357.0" font-size="10" font-weight="400" fill="#64748b" text-anchor="middle">0.6</text>
<line x1="105.8" y1="339.0" x2="105.8" y2="344.0" stroke="#475569" stroke-width="1"/>
<text x="105.8" y="357.0" font-size="10" font-weight="400" fill="#64748b" text-anchor="middle">0.7</text>
<line x1="169.4" y1="339.0" x2="169.4" y2="344.0" stroke="#475569" stroke-width="1"/>
<text x="169.4" y="357.0" font-size="10" font-weight="400" fill="#64748b" text-anchor="middle">1.0</text>
<line x1="190.6" y1="339.0" x2="190.6" y2="344.0" stroke="#475569" stroke-width="1"/>
<text x="190.6" y="357.0" font-size="10" font-weight="400" fill="#64748b" text-anchor="middle">1.1</text>
<line x1="233.0" y1="339.0" x2="233.0" y2="344.0" stroke="#475569" stroke-width="1"/>
<text x="233.0" y="357.0" font-size="10" font-weight="400" fill="#64748b" text-anchor="middle">1.3</text>
<line x1="275.4" y1="339.0" x2="275.4" y2="344.0" stroke="#475569" stroke-width="1"/>
<text x="275.4" y="357.0" font-size="10" font-weight="400" fill="#64748b" text-anchor="middle">1.5</text>
<polyline points="81.4,236.9 102.6,228.3 166.2,231.1 187.4,238.3 229.8,252.0 272.2,283.6" fill="none" stroke="#2563eb" stroke-width="2.0" stroke-linejoin="round" stroke-linecap="round" opacity="0.82"/>
<polyline points="83.5,222.9 104.7,222.2 168.3,227.2 189.5,230.8 231.9,241.5 274.3,256.6" fill="none" stroke="#c2410c" stroke-width="2.0" stroke-linejoin="round" stroke-linecap="round" opacity="0.82"/>
<polyline points="85.7,227.9 106.9,226.5 170.5,234.4 191.7,245.1 234.1,263.0 276.5,283.8" fill="none" stroke="#7c3aed" stroke-width="2.0" stroke-linejoin="round" stroke-linecap="round" opacity="0.82"/>
<polyline points="87.8,236.5 109.0,230.1 172.6,230.1 193.8,235.8 236.2,235.8 278.6,253.0" fill="none" stroke="#047857" stroke-width="2.0" stroke-linejoin="round" stroke-linecap="round" opacity="0.82"/>
<line x1="81.4" y1="224.7" x2="81.4" y2="248.9" stroke="#2563eb" stroke-width="1.45" opacity="0.65"/>
<line x1="77.6" y1="224.7" x2="85.2" y2="224.7" stroke="#2563eb" stroke-width="1.45" opacity="0.65"/>
<line x1="77.6" y1="248.9" x2="85.2" y2="248.9" stroke="#2563eb" stroke-width="1.45" opacity="0.65"/>
<circle cx="81.4" cy="236.9" r="4.2" fill="#2563eb" stroke="#ffffff" stroke-width="1.3"/>
<title>Baseline T=0.6 base no penalty: 47.5% [41.9, 53.1]</title>
<line x1="102.6" y1="216.2" x2="102.6" y2="240.4" stroke="#2563eb" stroke-width="1.45" opacity="0.65"/>
<line x1="98.8" y1="216.2" x2="106.4" y2="216.2" stroke="#2563eb" stroke-width="1.45" opacity="0.65"/>
<line x1="98.8" y1="240.4" x2="106.4" y2="240.4" stroke="#2563eb" stroke-width="1.45" opacity="0.65"/>
<circle cx="102.6" cy="228.3" r="4.2" fill="#2563eb" stroke="#ffffff" stroke-width="1.3"/>
<title>Baseline T=0.7 base no penalty: 51.5% [45.9, 57.1]</title>
<line x1="166.2" y1="219.0" x2="166.2" y2="243.3" stroke="#2563eb" stroke-width="1.45" opacity="0.65"/>
<line x1="162.4" y1="219.0" x2="170.0" y2="219.0" stroke="#2563eb" stroke-width="1.45" opacity="0.65"/>
<line x1="162.4" y1="243.3" x2="170.0" y2="243.3" stroke="#2563eb" stroke-width="1.45" opacity="0.65"/>
<circle cx="166.2" cy="231.1" r="4.2" fill="#2563eb" stroke="#ffffff" stroke-width="1.3"/>
<title>Baseline T=1.0 base no penalty: 50.2% [44.5, 55.8]</title>
<line x1="187.4" y1="226.2" x2="187.4" y2="250.3" stroke="#2563eb" stroke-width="1.45" opacity="0.65"/>
<line x1="183.6" y1="226.2" x2="191.2" y2="226.2" stroke="#2563eb" stroke-width="1.45" opacity="0.65"/>
<line x1="183.6" y1="250.3" x2="191.2" y2="250.3" stroke="#2563eb" stroke-width="1.45" opacity="0.65"/>
<circle cx="187.4" cy="238.3" r="4.2" fill="#2563eb" stroke="#ffffff" stroke-width="1.3"/>
<title>Baseline T=1.1 base no penalty: 46.8% [41.2, 52.5]</title>
<line x1="229.8" y1="239.8" x2="229.8" y2="263.6" stroke="#2563eb" stroke-width="1.45" opacity="0.65"/>
<line x1="226.0" y1="239.8" x2="233.6" y2="239.8" stroke="#2563eb" stroke-width="1.45" opacity="0.65"/>
<line x1="226.0" y1="263.6" x2="233.6" y2="263.6" stroke="#2563eb" stroke-width="1.45" opacity="0.65"/>
<circle cx="229.8" cy="252.0" r="4.2" fill="#2563eb" stroke="#ffffff" stroke-width="1.3"/>
<title>Baseline T=1.3 base no penalty: 40.5% [35.1, 46.1]</title>
<line x1="272.2" y1="272.4" x2="272.2" y2="293.6" stroke="#2563eb" stroke-width="1.45" opacity="0.65"/>
<line x1="268.4" y1="272.4" x2="276.0" y2="272.4" stroke="#2563eb" stroke-width="1.45" opacity="0.65"/>
<line x1="268.4" y1="293.6" x2="276.0" y2="293.6" stroke="#2563eb" stroke-width="1.45" opacity="0.65"/>
<circle cx="272.2" cy="283.6" r="4.2" fill="#2563eb" stroke="#ffffff" stroke-width="1.3"/>
<title>Baseline T=1.5 base no penalty: 25.8% [21.1, 31.0]</title>
<line x1="83.5" y1="211.0" x2="83.5" y2="235.1" stroke="#c2410c" stroke-width="1.45" opacity="0.65"/>
<line x1="79.7" y1="211.0" x2="87.3" y2="211.0" stroke="#c2410c" stroke-width="1.45" opacity="0.65"/>
<line x1="79.7" y1="235.1" x2="87.3" y2="235.1" stroke="#c2410c" stroke-width="1.45" opacity="0.65"/>
<polygon points="83.5,217.6 88.8,222.9 83.5,228.2 78.2,222.9" fill="#c2410c" stroke="#ffffff" stroke-width="1.2"/>
<title>T_train=1.1 T=0.6 trained final model: 54.0% [48.3, 59.6]</title>
<line x1="104.7" y1="210.3" x2="104.7" y2="234.3" stroke="#c2410c" stroke-width="1.45" opacity="0.65"/>
<line x1="100.9" y1="210.3" x2="108.5" y2="210.3" stroke="#c2410c" stroke-width="1.45" opacity="0.65"/>
<line x1="100.9" y1="234.3" x2="108.5" y2="234.3" stroke="#c2410c" stroke-width="1.45" opacity="0.65"/>
<polygon points="104.7,216.9 110.0,222.2 104.7,227.5 99.4,222.2" fill="#c2410c" stroke="#ffffff" stroke-width="1.2"/>
<title>T_train=1.1 T=0.7 trained final model: 54.3% [48.7, 59.9]</title>
<line x1="168.3" y1="215.2" x2="168.3" y2="239.3" stroke="#c2410c" stroke-width="1.45" opacity="0.65"/>
<line x1="164.5" y1="215.2" x2="172.1" y2="215.2" stroke="#c2410c" stroke-width="1.45" opacity="0.65"/>
<line x1="164.5" y1="239.3" x2="172.1" y2="239.3" stroke="#c2410c" stroke-width="1.45" opacity="0.65"/>
<polygon points="168.3,221.9 173.6,227.2 168.3,232.5 163.0,227.2" fill="#c2410c" stroke="#ffffff" stroke-width="1.2"/>
<title>T_train=1.1 T=1.0 trained final model: 52.0% [46.4, 57.6]</title>
<line x1="189.5" y1="218.7" x2="189.5" y2="242.9" stroke="#c2410c" stroke-width="1.45" opacity="0.65"/>
<line x1="185.7" y1="218.7" x2="193.3" y2="218.7" stroke="#c2410c" stroke-width="1.45" opacity="0.65"/>
<line x1="185.7" y1="242.9" x2="193.3" y2="242.9" stroke="#c2410c" stroke-width="1.45" opacity="0.65"/>
<polygon points="189.5,225.5 194.8,230.8 189.5,236.1 184.2,230.8" fill="#c2410c" stroke="#ffffff" stroke-width="1.2"/>
<title>T_train=1.1 T=1.1 trained final model: 50.3% [44.7, 56.0]</title>
<line x1="231.9" y1="229.4" x2="231.9" y2="253.4" stroke="#c2410c" stroke-width="1.45" opacity="0.65"/>
<line x1="228.1" y1="229.4" x2="235.7" y2="229.4" stroke="#c2410c" stroke-width="1.45" opacity="0.65"/>
<line x1="228.1" y1="253.4" x2="235.7" y2="253.4" stroke="#c2410c" stroke-width="1.45" opacity="0.65"/>
<polygon points="231.9,236.2 237.2,241.5 231.9,246.8 226.6,241.5" fill="#c2410c" stroke="#ffffff" stroke-width="1.2"/>
<title>T_train=1.1 T=1.3 trained final model: 45.3% [39.8, 51.0]</title>
<line x1="274.3" y1="244.5" x2="274.3" y2="268.0" stroke="#c2410c" stroke-width="1.45" opacity="0.65"/>
<line x1="270.5" y1="244.5" x2="278.1" y2="244.5" stroke="#c2410c" stroke-width="1.45" opacity="0.65"/>
<line x1="270.5" y1="268.0" x2="278.1" y2="268.0" stroke="#c2410c" stroke-width="1.45" opacity="0.65"/>
<polygon points="274.3,251.3 279.6,256.6 274.3,261.9 269.0,256.6" fill="#c2410c" stroke="#ffffff" stroke-width="1.2"/>
<title>T_train=1.1 T=1.5 trained final model: 38.3% [33.0, 43.9]</title>
<line x1="85.7" y1="215.9" x2="85.7" y2="240.0" stroke="#7c3aed" stroke-width="1.45" opacity="0.65"/>
<line x1="81.9" y1="215.9" x2="89.5" y2="215.9" stroke="#7c3aed" stroke-width="1.45" opacity="0.65"/>
<line x1="81.9" y1="240.0" x2="89.5" y2="240.0" stroke="#7c3aed" stroke-width="1.45" opacity="0.65"/>
<rect x="81.4" y="223.6" width="8.6" height="8.6" fill="#7c3aed" stroke="#ffffff" stroke-width="1.2"/>
<title>T_train=1.3 T=0.6 trained final model: 51.7% [46.0, 57.3]</title>
<line x1="106.9" y1="214.5" x2="106.9" y2="238.6" stroke="#7c3aed" stroke-width="1.45" opacity="0.65"/>
<line x1="103.1" y1="214.5" x2="110.7" y2="214.5" stroke="#7c3aed" stroke-width="1.45" opacity="0.65"/>
<line x1="103.1" y1="238.6" x2="110.7" y2="238.6" stroke="#7c3aed" stroke-width="1.45" opacity="0.65"/>
<rect x="102.6" y="222.2" width="8.6" height="8.6" fill="#7c3aed" stroke="#ffffff" stroke-width="1.2"/>
<title>T_train=1.3 T=0.7 trained final model: 52.3% [46.7, 57.9]</title>
<line x1="170.5" y1="222.2" x2="170.5" y2="246.4" stroke="#7c3aed" stroke-width="1.45" opacity="0.65"/>
<line x1="166.7" y1="222.2" x2="174.3" y2="222.2" stroke="#7c3aed" stroke-width="1.45" opacity="0.65"/>
<line x1="166.7" y1="246.4" x2="174.3" y2="246.4" stroke="#7c3aed" stroke-width="1.45" opacity="0.65"/>
<rect x="166.2" y="230.1" width="8.6" height="8.6" fill="#7c3aed" stroke="#ffffff" stroke-width="1.2"/>
<title>T_train=1.3 T=1.0 trained final model: 48.7% [43.1, 54.3]</title>
<line x1="191.7" y1="233.0" x2="191.7" y2="256.9" stroke="#7c3aed" stroke-width="1.45" opacity="0.65"/>
<line x1="187.9" y1="233.0" x2="195.5" y2="233.0" stroke="#7c3aed" stroke-width="1.45" opacity="0.65"/>
<line x1="187.9" y1="256.9" x2="195.5" y2="256.9" stroke="#7c3aed" stroke-width="1.45" opacity="0.65"/>
<rect x="187.4" y="240.8" width="8.6" height="8.6" fill="#7c3aed" stroke="#ffffff" stroke-width="1.2"/>
<title>T_train=1.3 T=1.1 trained final model: 43.7% [38.2, 49.3]</title>
<line x1="234.1" y1="251.1" x2="234.1" y2="274.2" stroke="#7c3aed" stroke-width="1.45" opacity="0.65"/>
<line x1="230.3" y1="251.1" x2="237.9" y2="251.1" stroke="#7c3aed" stroke-width="1.45" opacity="0.65"/>
<line x1="230.3" y1="274.2" x2="237.9" y2="274.2" stroke="#7c3aed" stroke-width="1.45" opacity="0.65"/>
<rect x="229.8" y="258.7" width="8.6" height="8.6" fill="#7c3aed" stroke="#ffffff" stroke-width="1.2"/>
<title>T_train=1.3 T=1.3 trained final model: 35.3% [30.1, 40.9]</title>
<line x1="276.5" y1="272.6" x2="276.5" y2="293.7" stroke="#7c3aed" stroke-width="1.45" opacity="0.65"/>
<line x1="272.7" y1="272.6" x2="280.3" y2="272.6" stroke="#7c3aed" stroke-width="1.45" opacity="0.65"/>
<line x1="272.7" y1="293.7" x2="280.3" y2="293.7" stroke="#7c3aed" stroke-width="1.45" opacity="0.65"/>
<rect x="272.2" y="279.5" width="8.6" height="8.6" fill="#7c3aed" stroke="#ffffff" stroke-width="1.2"/>
<title>T_train=1.3 T=1.5 trained final model: 25.7% [21.1, 30.9]</title>
<line x1="87.8" y1="224.4" x2="87.8" y2="248.5" stroke="#047857" stroke-width="1.45" opacity="0.65"/>
<line x1="84.0" y1="224.4" x2="91.6" y2="224.4" stroke="#047857" stroke-width="1.45" opacity="0.65"/>
<line x1="84.0" y1="248.5" x2="91.6" y2="248.5" stroke="#047857" stroke-width="1.45" opacity="0.65"/>
<polygon points="87.8,231.3 92.8,240.9 82.8,240.9" fill="#047857" stroke="#ffffff" stroke-width="1.2"/>
<title>topk=5 T=0.6 trained final model: 47.7% [42.1, 53.3]</title>
<line x1="109.0" y1="218.0" x2="109.0" y2="242.2" stroke="#047857" stroke-width="1.45" opacity="0.65"/>
<line x1="105.2" y1="218.0" x2="112.8" y2="218.0" stroke="#047857" stroke-width="1.45" opacity="0.65"/>
<line x1="105.2" y1="242.2" x2="112.8" y2="242.2" stroke="#047857" stroke-width="1.45" opacity="0.65"/>
<polygon points="109.0,224.9 114.0,234.5 104.0,234.5" fill="#047857" stroke="#ffffff" stroke-width="1.2"/>
<title>topk=5 T=0.7 trained final model: 50.7% [45.0, 56.3]</title>
<line x1="172.6" y1="218.0" x2="172.6" y2="242.2" stroke="#047857" stroke-width="1.45" opacity="0.65"/>
<line x1="168.8" y1="218.0" x2="176.4" y2="218.0" stroke="#047857" stroke-width="1.45" opacity="0.65"/>
<line x1="168.8" y1="242.2" x2="176.4" y2="242.2" stroke="#047857" stroke-width="1.45" opacity="0.65"/>
<polygon points="172.6,224.9 177.6,234.5 167.6,234.5" fill="#047857" stroke="#ffffff" stroke-width="1.2"/>
<title>topk=5 T=1.0 trained final model: 50.7% [45.0, 56.3]</title>
<line x1="193.8" y1="223.7" x2="193.8" y2="247.8" stroke="#047857" stroke-width="1.45" opacity="0.65"/>
<line x1="190.0" y1="223.7" x2="197.6" y2="223.7" stroke="#047857" stroke-width="1.45" opacity="0.65"/>
<line x1="190.0" y1="247.8" x2="197.6" y2="247.8" stroke="#047857" stroke-width="1.45" opacity="0.65"/>
<polygon points="193.8,230.6 198.8,240.2 188.8,240.2" fill="#047857" stroke="#ffffff" stroke-width="1.2"/>
<title>topk=5 T=1.1 trained final model: 48.0% [42.4, 53.6]</title>
<line x1="236.2" y1="223.7" x2="236.2" y2="247.8" stroke="#047857" stroke-width="1.45" opacity="0.65"/>
<line x1="232.4" y1="223.7" x2="240.0" y2="223.7" stroke="#047857" stroke-width="1.45" opacity="0.65"/>
<line x1="232.4" y1="247.8" x2="240.0" y2="247.8" stroke="#047857" stroke-width="1.45" opacity="0.65"/>
<polygon points="236.2,230.6 241.2,240.2 231.2,240.2" fill="#047857" stroke="#ffffff" stroke-width="1.2"/>
<title>topk=5 T=1.3 trained final model: 48.0% [42.4, 53.6]</title>
<line x1="278.6" y1="240.9" x2="278.6" y2="264.6" stroke="#047857" stroke-width="1.45" opacity="0.65"/>
<line x1="274.8" y1="240.9" x2="282.4" y2="240.9" stroke="#047857" stroke-width="1.45" opacity="0.65"/>
<line x1="274.8" y1="264.6" x2="282.4" y2="264.6" stroke="#047857" stroke-width="1.45" opacity="0.65"/>
<polygon points="278.6,247.8 283.6,257.4 273.6,257.4" fill="#047857" stroke="#ffffff" stroke-width="1.2"/>
<title>topk=5 T=1.5 trained final model: 40.0% [34.6, 45.6]</title>
<text x="416.0" y="112.0" font-size="13" font-weight="700" fill="#0f172a" text-anchor="middle">Extracted answer</text>
<rect x="310.0" y="124.0" width="212.0" height="215.0" fill="#ffffff" stroke="#e2e8f0" stroke-width="1"/>
<line x1="310.0" y1="339.0" x2="522.0" y2="339.0" stroke="#e2e8f0" stroke-width="1"/>
<line x1="310.0" y1="285.2" x2="522.0" y2="285.2" stroke="#e2e8f0" stroke-width="1"/>
<line x1="310.0" y1="231.5" x2="522.0" y2="231.5" stroke="#e2e8f0" stroke-width="1"/>
<line x1="310.0" y1="177.8" x2="522.0" y2="177.8" stroke="#e2e8f0" stroke-width="1"/>
<line x1="310.0" y1="124.0" x2="522.0" y2="124.0" stroke="#e2e8f0" stroke-width="1"/>
<line x1="310.0" y1="339.0" x2="522.0" y2="339.0" stroke="#475569" stroke-width="1.2"/>
<line x1="310.0" y1="124.0" x2="310.0" y2="339.0" stroke="#475569" stroke-width="1.2"/>
<line x1="320.6" y1="339.0" x2="320.6" y2="344.0" stroke="#475569" stroke-width="1"/>
<text x="320.6" y="357.0" font-size="10" font-weight="400" fill="#64748b" text-anchor="middle">0.6</text>
<line x1="341.8" y1="339.0" x2="341.8" y2="344.0" stroke="#475569" stroke-width="1"/>
<text x="341.8" y="357.0" font-size="10" font-weight="400" fill="#64748b" text-anchor="middle">0.7</text>
<line x1="405.4" y1="339.0" x2="405.4" y2="344.0" stroke="#475569" stroke-width="1"/>
<text x="405.4" y="357.0" font-size="10" font-weight="400" fill="#64748b" text-anchor="middle">1.0</text>
<line x1="426.6" y1="339.0" x2="426.6" y2="344.0" stroke="#475569" stroke-width="1"/>
<text x="426.6" y="357.0" font-size="10" font-weight="400" fill="#64748b" text-anchor="middle">1.1</text>
<line x1="469.0" y1="339.0" x2="469.0" y2="344.0" stroke="#475569" stroke-width="1"/>
<text x="469.0" y="357.0" font-size="10" font-weight="400" fill="#64748b" text-anchor="middle">1.3</text>
<line x1="511.4" y1="339.0" x2="511.4" y2="344.0" stroke="#475569" stroke-width="1"/>
<text x="511.4" y="357.0" font-size="10" font-weight="400" fill="#64748b" text-anchor="middle">1.5</text>
<polyline points="317.4,192.2 338.6,179.7 402.2,180.8 423.4,188.5 465.8,204.0 508.2,228.9" fill="none" stroke="#2563eb" stroke-width="2.0" stroke-linejoin="round" stroke-linecap="round" opacity="0.82"/>
<polyline points="319.5,194.2 340.7,190.7 404.3,202.8 425.5,207.9 467.9,215.7 510.3,235.8" fill="none" stroke="#c2410c" stroke-width="2.0" stroke-linejoin="round" stroke-linecap="round" opacity="0.82"/>
<polyline points="321.7,193.5 342.9,195.7 406.5,215.7 427.7,230.8 470.1,248.0 512.5,265.2" fill="none" stroke="#7c3aed" stroke-width="2.0" stroke-linejoin="round" stroke-linecap="round" opacity="0.82"/>
<polyline points="323.8,209.3 345.0,200.0 408.6,205.0 429.8,206.4 472.2,217.9 514.6,234.4" fill="none" stroke="#047857" stroke-width="2.0" stroke-linejoin="round" stroke-linecap="round" opacity="0.82"/>
<line x1="317.4" y1="186.1" x2="317.4" y2="198.5" stroke="#2563eb" stroke-width="1.45" opacity="0.65"/>
<line x1="313.6" y1="186.1" x2="321.2" y2="186.1" stroke="#2563eb" stroke-width="1.45" opacity="0.65"/>
<line x1="313.6" y1="198.5" x2="321.2" y2="198.5" stroke="#2563eb" stroke-width="1.45" opacity="0.65"/>
<circle cx="317.4" cy="192.2" r="4.2" fill="#2563eb" stroke="#ffffff" stroke-width="1.3"/>
<title>Baseline T=0.6 base no penalty: 68.3% [65.4, 71.1]</title>
<line x1="338.6" y1="174.1" x2="338.6" y2="185.7" stroke="#2563eb" stroke-width="1.45" opacity="0.65"/>
<line x1="334.8" y1="174.1" x2="342.4" y2="174.1" stroke="#2563eb" stroke-width="1.45" opacity="0.65"/>
<line x1="334.8" y1="185.7" x2="342.4" y2="185.7" stroke="#2563eb" stroke-width="1.45" opacity="0.65"/>
<circle cx="338.6" cy="179.7" r="4.2" fill="#2563eb" stroke="#ffffff" stroke-width="1.3"/>
<title>Baseline T=0.7 base no penalty: 74.1% [71.3, 76.7]</title>
<line x1="402.2" y1="175.1" x2="402.2" y2="186.8" stroke="#2563eb" stroke-width="1.45" opacity="0.65"/>
<line x1="398.4" y1="175.1" x2="406.0" y2="175.1" stroke="#2563eb" stroke-width="1.45" opacity="0.65"/>
<line x1="398.4" y1="186.8" x2="406.0" y2="186.8" stroke="#2563eb" stroke-width="1.45" opacity="0.65"/>
<circle cx="402.2" cy="180.8" r="4.2" fill="#2563eb" stroke="#ffffff" stroke-width="1.3"/>
<title>Baseline T=1.0 base no penalty: 73.6% [70.8, 76.2]</title>
<line x1="423.4" y1="182.6" x2="423.4" y2="194.8" stroke="#2563eb" stroke-width="1.45" opacity="0.65"/>
<line x1="419.6" y1="182.6" x2="427.2" y2="182.6" stroke="#2563eb" stroke-width="1.45" opacity="0.65"/>
<line x1="419.6" y1="194.8" x2="427.2" y2="194.8" stroke="#2563eb" stroke-width="1.45" opacity="0.65"/>
<circle cx="423.4" cy="188.5" r="4.2" fill="#2563eb" stroke="#ffffff" stroke-width="1.3"/>
<title>Baseline T=1.1 base no penalty: 70.0% [67.1, 72.8]</title>
<line x1="465.8" y1="197.7" x2="465.8" y2="210.5" stroke="#2563eb" stroke-width="1.45" opacity="0.65"/>
<line x1="462.0" y1="197.7" x2="469.6" y2="197.7" stroke="#2563eb" stroke-width="1.45" opacity="0.65"/>
<line x1="462.0" y1="210.5" x2="469.6" y2="210.5" stroke="#2563eb" stroke-width="1.45" opacity="0.65"/>
<circle cx="465.8" cy="204.0" r="4.2" fill="#2563eb" stroke="#ffffff" stroke-width="1.3"/>
<title>Baseline T=1.3 base no penalty: 62.8% [59.8, 65.7]</title>
<line x1="508.2" y1="222.3" x2="508.2" y2="235.6" stroke="#2563eb" stroke-width="1.45" opacity="0.65"/>
<line x1="504.4" y1="222.3" x2="512.0" y2="222.3" stroke="#2563eb" stroke-width="1.45" opacity="0.65"/>
<line x1="504.4" y1="235.6" x2="512.0" y2="235.6" stroke="#2563eb" stroke-width="1.45" opacity="0.65"/>
<circle cx="508.2" cy="228.9" r="4.2" fill="#2563eb" stroke="#ffffff" stroke-width="1.3"/>
<title>Baseline T=1.5 base no penalty: 51.2% [48.1, 54.3]</title>
<line x1="319.5" y1="183.4" x2="319.5" y2="206.1" stroke="#c2410c" stroke-width="1.45" opacity="0.65"/>
<line x1="315.7" y1="183.4" x2="323.3" y2="183.4" stroke="#c2410c" stroke-width="1.45" opacity="0.65"/>
<line x1="315.7" y1="206.1" x2="323.3" y2="206.1" stroke="#c2410c" stroke-width="1.45" opacity="0.65"/>
<polygon points="319.5,188.9 324.8,194.2 319.5,199.5 314.2,194.2" fill="#c2410c" stroke="#ffffff" stroke-width="1.2"/>
<title>T_train=1.1 T=0.6 trained final model: 67.3% [61.8, 72.4]</title>
<line x1="340.7" y1="180.0" x2="340.7" y2="202.4" stroke="#c2410c" stroke-width="1.45" opacity="0.65"/>
<line x1="336.9" y1="180.0" x2="344.5" y2="180.0" stroke="#c2410c" stroke-width="1.45" opacity="0.65"/>
<line x1="336.9" y1="202.4" x2="344.5" y2="202.4" stroke="#c2410c" stroke-width="1.45" opacity="0.65"/>
<polygon points="340.7,185.3 346.0,190.7 340.7,196.0 335.4,190.7" fill="#c2410c" stroke="#ffffff" stroke-width="1.2"/>
<title>T_train=1.1 T=0.7 trained final model: 69.0% [63.6, 74.0]</title>
<line x1="404.3" y1="191.5" x2="404.3" y2="214.9" stroke="#c2410c" stroke-width="1.45" opacity="0.65"/>
<line x1="400.5" y1="191.5" x2="408.1" y2="191.5" stroke="#c2410c" stroke-width="1.45" opacity="0.65"/>
<line x1="400.5" y1="214.9" x2="408.1" y2="214.9" stroke="#c2410c" stroke-width="1.45" opacity="0.65"/>
<polygon points="404.3,197.5 409.6,202.8 404.3,208.1 399.0,202.8" fill="#c2410c" stroke="#ffffff" stroke-width="1.2"/>
<title>T_train=1.1 T=1.0 trained final model: 63.3% [57.7, 68.6]</title>
<line x1="425.5" y1="196.4" x2="425.5" y2="219.9" stroke="#c2410c" stroke-width="1.45" opacity="0.65"/>
<line x1="421.7" y1="196.4" x2="429.3" y2="196.4" stroke="#c2410c" stroke-width="1.45" opacity="0.65"/>
<line x1="421.7" y1="219.9" x2="429.3" y2="219.9" stroke="#c2410c" stroke-width="1.45" opacity="0.65"/>
<polygon points="425.5,202.6 430.8,207.9 425.5,213.2 420.2,207.9" fill="#c2410c" stroke="#ffffff" stroke-width="1.2"/>
<title>T_train=1.1 T=1.1 trained final model: 61.0% [55.4, 66.3]</title>
<line x1="467.9" y1="204.0" x2="467.9" y2="227.9" stroke="#c2410c" stroke-width="1.45" opacity="0.65"/>
<line x1="464.1" y1="204.0" x2="471.7" y2="204.0" stroke="#c2410c" stroke-width="1.45" opacity="0.65"/>
<line x1="464.1" y1="227.9" x2="471.7" y2="227.9" stroke="#c2410c" stroke-width="1.45" opacity="0.65"/>
<polygon points="467.9,210.4 473.2,215.7 467.9,221.0 462.6,215.7" fill="#c2410c" stroke="#ffffff" stroke-width="1.2"/>
<title>T_train=1.1 T=1.3 trained final model: 57.3% [51.7, 62.8]</title>
<line x1="510.3" y1="223.7" x2="510.3" y2="247.8" stroke="#c2410c" stroke-width="1.45" opacity="0.65"/>
<line x1="506.5" y1="223.7" x2="514.1" y2="223.7" stroke="#c2410c" stroke-width="1.45" opacity="0.65"/>
<line x1="506.5" y1="247.8" x2="514.1" y2="247.8" stroke="#c2410c" stroke-width="1.45" opacity="0.65"/>
<polygon points="510.3,230.5 515.6,235.8 510.3,241.1 505.0,235.8" fill="#c2410c" stroke="#ffffff" stroke-width="1.2"/>
<title>T_train=1.1 T=1.5 trained final model: 48.0% [42.4, 53.6]</title>
<line x1="321.7" y1="182.7" x2="321.7" y2="205.3" stroke="#7c3aed" stroke-width="1.45" opacity="0.65"/>
<line x1="317.9" y1="182.7" x2="325.5" y2="182.7" stroke="#7c3aed" stroke-width="1.45" opacity="0.65"/>
<line x1="317.9" y1="205.3" x2="325.5" y2="205.3" stroke="#7c3aed" stroke-width="1.45" opacity="0.65"/>
<rect x="317.4" y="189.2" width="8.6" height="8.6" fill="#7c3aed" stroke="#ffffff" stroke-width="1.2"/>
<title>T_train=1.3 T=0.6 trained final model: 67.7% [62.2, 72.7]</title>
<line x1="342.9" y1="184.7" x2="342.9" y2="207.5" stroke="#7c3aed" stroke-width="1.45" opacity="0.65"/>
<line x1="339.1" y1="184.7" x2="346.7" y2="184.7" stroke="#7c3aed" stroke-width="1.45" opacity="0.65"/>
<line x1="339.1" y1="207.5" x2="346.7" y2="207.5" stroke="#7c3aed" stroke-width="1.45" opacity="0.65"/>
<rect x="338.6" y="191.4" width="8.6" height="8.6" fill="#7c3aed" stroke="#ffffff" stroke-width="1.2"/>
<title>T_train=1.3 T=0.7 trained final model: 66.7% [61.2, 71.8]</title>
<line x1="406.5" y1="204.0" x2="406.5" y2="227.9" stroke="#7c3aed" stroke-width="1.45" opacity="0.65"/>
<line x1="402.7" y1="204.0" x2="410.3" y2="204.0" stroke="#7c3aed" stroke-width="1.45" opacity="0.65"/>
<line x1="402.7" y1="227.9" x2="410.3" y2="227.9" stroke="#7c3aed" stroke-width="1.45" opacity="0.65"/>
<rect x="402.2" y="211.4" width="8.6" height="8.6" fill="#7c3aed" stroke="#ffffff" stroke-width="1.2"/>
<title>T_train=1.3 T=1.0 trained final model: 57.3% [51.7, 62.8]</title>
<line x1="427.7" y1="218.7" x2="427.7" y2="242.9" stroke="#7c3aed" stroke-width="1.45" opacity="0.65"/>
<line x1="423.9" y1="218.7" x2="431.5" y2="218.7" stroke="#7c3aed" stroke-width="1.45" opacity="0.65"/>
<line x1="423.9" y1="242.9" x2="431.5" y2="242.9" stroke="#7c3aed" stroke-width="1.45" opacity="0.65"/>
<rect x="423.4" y="226.5" width="8.6" height="8.6" fill="#7c3aed" stroke="#ffffff" stroke-width="1.2"/>
<title>T_train=1.3 T=1.1 trained final model: 50.3% [44.7, 56.0]</title>
<line x1="470.1" y1="235.8" x2="470.1" y2="259.7" stroke="#7c3aed" stroke-width="1.45" opacity="0.65"/>
<line x1="466.3" y1="235.8" x2="473.9" y2="235.8" stroke="#7c3aed" stroke-width="1.45" opacity="0.65"/>
<line x1="466.3" y1="259.7" x2="473.9" y2="259.7" stroke="#7c3aed" stroke-width="1.45" opacity="0.65"/>
<rect x="465.8" y="243.7" width="8.6" height="8.6" fill="#7c3aed" stroke="#ffffff" stroke-width="1.2"/>
<title>T_train=1.3 T=1.3 trained final model: 42.3% [36.9, 48.0]</title>
<line x1="512.5" y1="253.3" x2="512.5" y2="276.2" stroke="#7c3aed" stroke-width="1.45" opacity="0.65"/>
<line x1="508.7" y1="253.3" x2="516.3" y2="253.3" stroke="#7c3aed" stroke-width="1.45" opacity="0.65"/>
<line x1="508.7" y1="276.2" x2="516.3" y2="276.2" stroke="#7c3aed" stroke-width="1.45" opacity="0.65"/>
<rect x="508.2" y="260.9" width="8.6" height="8.6" fill="#7c3aed" stroke="#ffffff" stroke-width="1.2"/>
<title>T_train=1.3 T=1.5 trained final model: 34.3% [29.2, 39.9]</title>
<line x1="323.8" y1="197.7" x2="323.8" y2="221.4" stroke="#047857" stroke-width="1.45" opacity="0.65"/>
<line x1="320.0" y1="197.7" x2="327.6" y2="197.7" stroke="#047857" stroke-width="1.45" opacity="0.65"/>
<line x1="320.0" y1="221.4" x2="327.6" y2="221.4" stroke="#047857" stroke-width="1.45" opacity="0.65"/>
<polygon points="323.8,204.1 328.8,213.7 318.8,213.7" fill="#047857" stroke="#ffffff" stroke-width="1.2"/>
<title>topk=5 T=0.6 trained final model: 60.3% [54.7, 65.7]</title>
<line x1="345.0" y1="188.8" x2="345.0" y2="211.9" stroke="#047857" stroke-width="1.45" opacity="0.65"/>
<line x1="341.2" y1="188.8" x2="348.8" y2="188.8" stroke="#047857" stroke-width="1.45" opacity="0.65"/>
<line x1="341.2" y1="211.9" x2="348.8" y2="211.9" stroke="#047857" stroke-width="1.45" opacity="0.65"/>
<polygon points="345.0,194.8 350.0,204.4 340.0,204.4" fill="#047857" stroke="#ffffff" stroke-width="1.2"/>
<title>topk=5 T=0.7 trained final model: 64.7% [59.1, 69.9]</title>
<line x1="408.6" y1="193.6" x2="408.6" y2="217.0" stroke="#047857" stroke-width="1.45" opacity="0.65"/>
<line x1="404.8" y1="193.6" x2="412.4" y2="193.6" stroke="#047857" stroke-width="1.45" opacity="0.65"/>
<line x1="404.8" y1="217.0" x2="412.4" y2="217.0" stroke="#047857" stroke-width="1.45" opacity="0.65"/>
<polygon points="408.6,199.8 413.6,209.4 403.6,209.4" fill="#047857" stroke="#ffffff" stroke-width="1.2"/>
<title>topk=5 T=1.0 trained final model: 62.3% [56.7, 67.6]</title>
<line x1="429.8" y1="195.0" x2="429.8" y2="218.5" stroke="#047857" stroke-width="1.45" opacity="0.65"/>
<line x1="426.0" y1="195.0" x2="433.6" y2="195.0" stroke="#047857" stroke-width="1.45" opacity="0.65"/>
<line x1="426.0" y1="218.5" x2="433.6" y2="218.5" stroke="#047857" stroke-width="1.45" opacity="0.65"/>
<polygon points="429.8,201.2 434.8,210.8 424.8,210.8" fill="#047857" stroke="#ffffff" stroke-width="1.2"/>
<title>topk=5 T=1.1 trained final model: 61.7% [56.1, 67.0]</title>
<line x1="472.2" y1="206.1" x2="472.2" y2="230.0" stroke="#047857" stroke-width="1.45" opacity="0.65"/>
<line x1="468.4" y1="206.1" x2="476.0" y2="206.1" stroke="#047857" stroke-width="1.45" opacity="0.65"/>
<line x1="468.4" y1="230.0" x2="476.0" y2="230.0" stroke="#047857" stroke-width="1.45" opacity="0.65"/>
<polygon points="472.2,212.7 477.2,222.3 467.2,222.3" fill="#047857" stroke="#ffffff" stroke-width="1.2"/>
<title>topk=5 T=1.3 trained final model: 56.3% [50.7, 61.8]</title>
<line x1="514.6" y1="222.2" x2="514.6" y2="246.4" stroke="#047857" stroke-width="1.45" opacity="0.65"/>
<line x1="510.8" y1="222.2" x2="518.4" y2="222.2" stroke="#047857" stroke-width="1.45" opacity="0.65"/>
<line x1="510.8" y1="246.4" x2="518.4" y2="246.4" stroke="#047857" stroke-width="1.45" opacity="0.65"/>
<polygon points="514.6,229.2 519.6,238.8 509.6,238.8" fill="#047857" stroke="#ffffff" stroke-width="1.2"/>
<title>topk=5 T=1.5 trained final model: 48.7% [43.1, 54.3]</title>
<text x="22.0" y="231.5" font-size="13" font-weight="700" fill="#0f172a" text-anchor="middle" transform="rotate(-90.0 22.0 231.5)">Rate</text>
<text x="298.0" y="393.0" font-size="12" font-weight="600" fill="#64748b" text-anchor="middle">Eval temperature</text>
</svg>