<svg xmlns="http://www.w3.org/2000/svg" viewBox="0 0 840 736"
     width="840" height="736" role="img"
     aria-label="Facet grid of V1.1 evaluation statistics with baseline highlights">
<rect width="100%" height="100%" fill="#ffffff"/>
<style>
  text { font-family: Inter, ui-sans-serif, system-ui, -apple-system, sans-serif; }
</style>
<text x="36.0" y="34.0" font-size="20" font-weight="700" fill="#0f172a" text-anchor="start">SSD Baseline Sweeps</text>
<text x="36.0" y="58.0" font-size="12" font-weight="400" fill="#64748b" text-anchor="start">Points show rates with 95% CIs. Accuracy is split by eval budget; highlighted markers identify the precise/general decode baselines.</text>
<circle cx="70.0" cy="80.0" r="4.4" fill="#2563eb"/>
<text x="82.0" y="84.0" font-size="11" font-weight="600" fill="#0f172a" text-anchor="start">Base sweep</text>
<polygon points="182.0,74.6 187.4,80.0 182.0,85.4 176.6,80.0" fill="#c2410c" stroke="#ffffff" stroke-width="1.3"/>
<text x="194.0" y="84.0" font-size="11" font-weight="600" fill="#0f172a" text-anchor="start">Precise</text>
<polygon points="314.0,74.6 319.4,80.0 314.0,85.4 308.6,80.0" fill="#7c3aed" stroke="#ffffff" stroke-width="1.3"/>
<text x="326.0" y="84.0" font-size="11" font-weight="600" fill="#0f172a" text-anchor="start">General no PP</text>
<polygon points="446.0,74.6 451.4,80.0 446.0,85.4 440.6,80.0" fill="#047857" stroke="#ffffff" stroke-width="1.3"/>
<text x="458.0" y="84.0" font-size="11" font-weight="600" fill="#0f172a" text-anchor="start">General + PP</text>
<text x="189.0" y="108.0" font-size="13" font-weight="700" fill="#0f172a" text-anchor="middle">Accuracy 1k</text>
<text x="425.0" y="108.0" font-size="13" font-weight="700" fill="#0f172a" text-anchor="middle">Accuracy 300</text>
<text x="661.0" y="108.0" font-size="13" font-weight="700" fill="#0f172a" text-anchor="middle">Extracted answer</text>
<rect x="82.0" y="118.0" width="214.0" height="205.0" fill="#ffffff" stroke="#e2e8f0" stroke-width="1"/>
<line x1="82.0" y1="323.0" x2="296.0" y2="323.0" stroke="#e2e8f0" stroke-width="1"/>
<text x="74.0" y="327.0" font-size="10" font-weight="400" fill="#64748b" text-anchor="end">0</text>
<line x1="82.0" y1="271.8" x2="296.0" y2="271.8" stroke="#e2e8f0" stroke-width="1"/>
<text x="74.0" y="275.8" font-size="10" font-weight="400" fill="#64748b" text-anchor="end">25</text>
<line x1="82.0" y1="220.5" x2="296.0" y2="220.5" stroke="#e2e8f0" stroke-width="1"/>
<text x="74.0" y="224.5" font-size="10" font-weight="400" fill="#64748b" text-anchor="end">50</text>
<line x1="82.0" y1="169.2" x2="296.0" y2="169.2" stroke="#e2e8f0" stroke-width="1"/>
<text x="74.0" y="173.2" font-size="10" font-weight="400" fill="#64748b" text-anchor="end">75</text>
<line x1="82.0" y1="118.0" x2="296.0" y2="118.0" stroke="#e2e8f0" stroke-width="1"/>
<text x="74.0" y="122.0" font-size="10" font-weight="400" fill="#64748b" text-anchor="end">100</text>
<line x1="82.0" y1="323.0" x2="296.0" y2="323.0" stroke="#475569" stroke-width="1.2"/>
<line x1="82.0" y1="118.0" x2="82.0" y2="323.0" stroke="#475569" stroke-width="1.2"/>
<line x1="92.7" y1="323.0" x2="92.7" y2="328.0" stroke="#475569" stroke-width="1"/>
<text x="92.7" y="341.0" font-size="10" font-weight="400" fill="#64748b" text-anchor="middle">0.6</text>
<line x1="114.1" y1="323.0" x2="114.1" y2="328.0" stroke="#475569" stroke-width="1"/>
<text x="114.1" y="341.0" font-size="10" font-weight="400" fill="#64748b" text-anchor="middle">0.7</text>
<line x1="178.3" y1="323.0" x2="178.3" y2="328.0" stroke="#475569" stroke-width="1"/>
<text x="178.3" y="341.0" font-size="10" font-weight="400" fill="#64748b" text-anchor="middle">1.0</text>
<line x1="199.7" y1="323.0" x2="199.7" y2="328.0" stroke="#475569" stroke-width="1"/>
<text x="199.7" y="341.0" font-size="10" font-weight="400" fill="#64748b" text-anchor="middle">1.1</text>
<line x1="242.5" y1="323.0" x2="242.5" y2="328.0" stroke="#475569" stroke-width="1"/>
<text x="242.5" y="341.0" font-size="10" font-weight="400" fill="#64748b" text-anchor="middle">1.3</text>
<line x1="285.3" y1="323.0" x2="285.3" y2="328.0" stroke="#475569" stroke-width="1"/>
<text x="285.3" y="341.0" font-size="10" font-weight="400" fill="#64748b" text-anchor="middle">1.5</text>
<line x1="114.1" y1="185.8" x2="114.1" y2="198.0" stroke="#2563eb" stroke-width="1.6" opacity="0.72"/>
<line x1="110.1" y1="185.8" x2="118.1" y2="185.8" stroke="#2563eb" stroke-width="1.6" opacity="0.72"/>
<line x1="110.1" y1="198.0" x2="118.1" y2="198.0" stroke="#2563eb" stroke-width="1.6" opacity="0.72"/>
<circle cx="114.1" cy="191.8" r="4.4" fill="#2563eb" stroke="#ffffff" stroke-width="1.4"/>
<title>Base T=0.7 base no penalty: 64.0% [61.0, 66.9]</title>
<line x1="199.7" y1="189.8" x2="199.7" y2="202.2" stroke="#2563eb" stroke-width="1.6" opacity="0.72"/>
<line x1="195.7" y1="189.8" x2="203.7" y2="189.8" stroke="#2563eb" stroke-width="1.6" opacity="0.72"/>
<line x1="195.7" y1="202.2" x2="203.7" y2="202.2" stroke="#2563eb" stroke-width="1.6" opacity="0.72"/>
<circle cx="199.7" cy="195.9" r="4.4" fill="#2563eb" stroke="#ffffff" stroke-width="1.4"/>
<title>Base T=1.1 base no penalty: 62.0% [59.0, 65.0]</title>
<line x1="242.5" y1="203.8" x2="242.5" y2="216.4" stroke="#2563eb" stroke-width="1.6" opacity="0.72"/>
<line x1="238.5" y1="203.8" x2="246.5" y2="203.8" stroke="#2563eb" stroke-width="1.6" opacity="0.72"/>
<line x1="238.5" y1="216.4" x2="246.5" y2="216.4" stroke="#2563eb" stroke-width="1.6" opacity="0.72"/>
<circle cx="242.5" cy="210.0" r="4.4" fill="#2563eb" stroke="#ffffff" stroke-width="1.4"/>
<title>Base T=1.3 base no penalty: 55.1% [52.0, 58.2]</title>
<line x1="285.3" y1="228.5" x2="285.3" y2="241.1" stroke="#2563eb" stroke-width="1.6" opacity="0.72"/>
<line x1="281.3" y1="228.5" x2="289.3" y2="228.5" stroke="#2563eb" stroke-width="1.6" opacity="0.72"/>
<line x1="281.3" y1="241.1" x2="289.3" y2="241.1" stroke="#2563eb" stroke-width="1.6" opacity="0.72"/>
<circle cx="285.3" cy="234.9" r="4.4" fill="#2563eb" stroke="#ffffff" stroke-width="1.4"/>
<title>Base T=1.5 base no penalty: 43.0% [40.0, 46.1]</title>
<line x1="96.6" y1="197.5" x2="96.6" y2="210.0" stroke="#c2410c" stroke-width="1.6" opacity="0.72"/>
<line x1="92.6" y1="197.5" x2="100.6" y2="197.5" stroke="#c2410c" stroke-width="1.6" opacity="0.72"/>
<line x1="92.6" y1="210.0" x2="100.6" y2="210.0" stroke="#c2410c" stroke-width="1.6" opacity="0.72"/>
<polygon points="96.6,197.9 102.4,203.7 96.6,209.5 90.8,203.7" fill="#c2410c" stroke="#ffffff" stroke-width="1.3"/>
<title>Precise T=0.6, no presence penalty, k=1: 58.2% [55.1, 61.2]</title>
<line x1="174.4" y1="186.8" x2="174.4" y2="199.0" stroke="#7c3aed" stroke-width="1.6" opacity="0.72"/>
<line x1="170.4" y1="186.8" x2="178.4" y2="186.8" stroke="#7c3aed" stroke-width="1.6" opacity="0.72"/>
<line x1="170.4" y1="199.0" x2="178.4" y2="199.0" stroke="#7c3aed" stroke-width="1.6" opacity="0.72"/>
<polygon points="174.4,187.0 180.2,192.8 174.4,198.6 168.6,192.8" fill="#7c3aed" stroke="#ffffff" stroke-width="1.3"/>
<title>General no PP T=1.0, no presence penalty, k=1: 63.5% [60.5, 66.4]</title>
<line x1="182.2" y1="181.8" x2="182.2" y2="193.0" stroke="#047857" stroke-width="1.6" opacity="0.72"/>
<line x1="178.2" y1="181.8" x2="186.2" y2="181.8" stroke="#047857" stroke-width="1.6" opacity="0.72"/>
<line x1="178.2" y1="193.0" x2="186.2" y2="193.0" stroke="#047857" stroke-width="1.6" opacity="0.72"/>
<polygon points="182.2,181.6 188.0,187.4 182.2,193.2 176.4,187.4" fill="#047857" stroke="#ffffff" stroke-width="1.3"/>
<title>General + PP T=1.0, presence penalty=1.5, k=3; accuracy uses sample-level metric: 66.1% [63.4, 68.9]</title>
<rect x="318.0" y="118.0" width="214.0" height="205.0" fill="#ffffff" stroke="#e2e8f0" stroke-width="1"/>
<line x1="318.0" y1="323.0" x2="532.0" y2="323.0" stroke="#e2e8f0" stroke-width="1"/>
<line x1="318.0" y1="271.8" x2="532.0" y2="271.8" stroke="#e2e8f0" stroke-width="1"/>
<line x1="318.0" y1="220.5" x2="532.0" y2="220.5" stroke="#e2e8f0" stroke-width="1"/>
<line x1="318.0" y1="169.2" x2="532.0" y2="169.2" stroke="#e2e8f0" stroke-width="1"/>
<line x1="318.0" y1="118.0" x2="532.0" y2="118.0" stroke="#e2e8f0" stroke-width="1"/>
<line x1="318.0" y1="323.0" x2="532.0" y2="323.0" stroke="#475569" stroke-width="1.2"/>
<line x1="318.0" y1="118.0" x2="318.0" y2="323.0" stroke="#475569" stroke-width="1.2"/>
<line x1="328.7" y1="323.0" x2="328.7" y2="328.0" stroke="#475569" stroke-width="1"/>
<text x="328.7" y="341.0" font-size="10" font-weight="400" fill="#64748b" text-anchor="middle">0.6</text>
<line x1="350.1" y1="323.0" x2="350.1" y2="328.0" stroke="#475569" stroke-width="1"/>
<text x="350.1" y="341.0" font-size="10" font-weight="400" fill="#64748b" text-anchor="middle">0.7</text>
<line x1="414.3" y1="323.0" x2="414.3" y2="328.0" stroke="#475569" stroke-width="1"/>
<text x="414.3" y="341.0" font-size="10" font-weight="400" fill="#64748b" text-anchor="middle">1.0</text>
<line x1="435.7" y1="323.0" x2="435.7" y2="328.0" stroke="#475569" stroke-width="1"/>
<text x="435.7" y="341.0" font-size="10" font-weight="400" fill="#64748b" text-anchor="middle">1.1</text>
<line x1="478.5" y1="323.0" x2="478.5" y2="328.0" stroke="#475569" stroke-width="1"/>
<text x="478.5" y="341.0" font-size="10" font-weight="400" fill="#64748b" text-anchor="middle">1.3</text>
<line x1="521.3" y1="323.0" x2="521.3" y2="328.0" stroke="#475569" stroke-width="1"/>
<text x="521.3" y="341.0" font-size="10" font-weight="400" fill="#64748b" text-anchor="middle">1.5</text>
<line x1="350.1" y1="205.9" x2="350.1" y2="229.0" stroke="#2563eb" stroke-width="1.6" opacity="0.72"/>
<line x1="346.1" y1="205.9" x2="354.1" y2="205.9" stroke="#2563eb" stroke-width="1.6" opacity="0.72"/>
<line x1="346.1" y1="229.0" x2="354.1" y2="229.0" stroke="#2563eb" stroke-width="1.6" opacity="0.72"/>
<circle cx="350.1" cy="217.4" r="4.4" fill="#2563eb" stroke="#ffffff" stroke-width="1.4"/>
<title>Base T=0.7 base no penalty: 51.5% [45.9, 57.1]</title>
<line x1="435.7" y1="215.4" x2="435.7" y2="238.5" stroke="#2563eb" stroke-width="1.6" opacity="0.72"/>
<line x1="431.7" y1="215.4" x2="439.7" y2="215.4" stroke="#2563eb" stroke-width="1.6" opacity="0.72"/>
<line x1="431.7" y1="238.5" x2="439.7" y2="238.5" stroke="#2563eb" stroke-width="1.6" opacity="0.72"/>
<circle cx="435.7" cy="227.0" r="4.4" fill="#2563eb" stroke="#ffffff" stroke-width="1.4"/>
<title>Base T=1.1 base no penalty: 46.8% [41.2, 52.5]</title>
<line x1="478.5" y1="228.5" x2="478.5" y2="251.1" stroke="#2563eb" stroke-width="1.6" opacity="0.72"/>
<line x1="474.5" y1="228.5" x2="482.5" y2="228.5" stroke="#2563eb" stroke-width="1.6" opacity="0.72"/>
<line x1="474.5" y1="251.1" x2="482.5" y2="251.1" stroke="#2563eb" stroke-width="1.6" opacity="0.72"/>
<circle cx="478.5" cy="240.0" r="4.4" fill="#2563eb" stroke="#ffffff" stroke-width="1.4"/>
<title>Base T=1.3 base no penalty: 40.5% [35.1, 46.1]</title>
<line x1="521.3" y1="259.5" x2="521.3" y2="279.7" stroke="#2563eb" stroke-width="1.6" opacity="0.72"/>
<line x1="517.3" y1="259.5" x2="525.3" y2="259.5" stroke="#2563eb" stroke-width="1.6" opacity="0.72"/>
<line x1="517.3" y1="279.7" x2="525.3" y2="279.7" stroke="#2563eb" stroke-width="1.6" opacity="0.72"/>
<circle cx="521.3" cy="270.2" r="4.4" fill="#2563eb" stroke="#ffffff" stroke-width="1.4"/>
<title>Base T=1.5 base no penalty: 25.8% [21.1, 31.0]</title>
<line x1="332.6" y1="214.0" x2="332.6" y2="237.1" stroke="#c2410c" stroke-width="1.6" opacity="0.72"/>
<line x1="328.6" y1="214.0" x2="336.6" y2="214.0" stroke="#c2410c" stroke-width="1.6" opacity="0.72"/>
<line x1="328.6" y1="237.1" x2="336.6" y2="237.1" stroke="#c2410c" stroke-width="1.6" opacity="0.72"/>
<polygon points="332.6,219.8 338.4,225.6 332.6,231.4 326.8,225.6" fill="#c2410c" stroke="#ffffff" stroke-width="1.3"/>
<title>Precise T=0.6, no presence penalty, k=1: 47.5% [41.9, 53.1]</title>
<line x1="410.4" y1="208.6" x2="410.4" y2="231.7" stroke="#7c3aed" stroke-width="1.6" opacity="0.72"/>
<line x1="406.4" y1="208.6" x2="414.4" y2="208.6" stroke="#7c3aed" stroke-width="1.6" opacity="0.72"/>
<line x1="406.4" y1="231.7" x2="414.4" y2="231.7" stroke="#7c3aed" stroke-width="1.6" opacity="0.72"/>
<polygon points="410.4,214.4 416.2,220.2 410.4,226.0 404.6,220.2" fill="#7c3aed" stroke="#ffffff" stroke-width="1.3"/>
<title>General no PP T=1.0, no presence penalty, k=1: 50.2% [44.5, 55.8]</title>
<line x1="418.2" y1="203.3" x2="418.2" y2="216.6" stroke="#047857" stroke-width="1.6" opacity="0.72"/>
<line x1="414.2" y1="203.3" x2="422.2" y2="203.3" stroke="#047857" stroke-width="1.6" opacity="0.72"/>
<line x1="414.2" y1="216.6" x2="422.2" y2="216.6" stroke="#047857" stroke-width="1.6" opacity="0.72"/>
<polygon points="418.2,204.1 424.0,209.9 418.2,215.7 412.4,209.9" fill="#047857" stroke="#ffffff" stroke-width="1.3"/>
<title>General + PP T=1.0, presence penalty=1.5, k=3; accuracy uses sample-level metric: 55.2% [51.9, 58.4]</title>
<rect x="554.0" y="118.0" width="214.0" height="205.0" fill="#ffffff" stroke="#e2e8f0" stroke-width="1"/>
<line x1="554.0" y1="323.0" x2="768.0" y2="323.0" stroke="#e2e8f0" stroke-width="1"/>
<line x1="554.0" y1="271.8" x2="768.0" y2="271.8" stroke="#e2e8f0" stroke-width="1"/>
<line x1="554.0" y1="220.5" x2="768.0" y2="220.5" stroke="#e2e8f0" stroke-width="1"/>
<line x1="554.0" y1="169.2" x2="768.0" y2="169.2" stroke="#e2e8f0" stroke-width="1"/>
<line x1="554.0" y1="118.0" x2="768.0" y2="118.0" stroke="#e2e8f0" stroke-width="1"/>
<line x1="554.0" y1="323.0" x2="768.0" y2="323.0" stroke="#475569" stroke-width="1.2"/>
<line x1="554.0" y1="118.0" x2="554.0" y2="323.0" stroke="#475569" stroke-width="1.2"/>
<line x1="564.7" y1="323.0" x2="564.7" y2="328.0" stroke="#475569" stroke-width="1"/>
<text x="564.7" y="341.0" font-size="10" font-weight="400" fill="#64748b" text-anchor="middle">0.6</text>
<line x1="586.1" y1="323.0" x2="586.1" y2="328.0" stroke="#475569" stroke-width="1"/>
<text x="586.1" y="341.0" font-size="10" font-weight="400" fill="#64748b" text-anchor="middle">0.7</text>
<line x1="650.3" y1="323.0" x2="650.3" y2="328.0" stroke="#475569" stroke-width="1"/>
<text x="650.3" y="341.0" font-size="10" font-weight="400" fill="#64748b" text-anchor="middle">1.0</text>
<line x1="671.7" y1="323.0" x2="671.7" y2="328.0" stroke="#475569" stroke-width="1"/>
<text x="671.7" y="341.0" font-size="10" font-weight="400" fill="#64748b" text-anchor="middle">1.1</text>
<line x1="714.5" y1="323.0" x2="714.5" y2="328.0" stroke="#475569" stroke-width="1"/>
<text x="714.5" y="341.0" font-size="10" font-weight="400" fill="#64748b" text-anchor="middle">1.3</text>
<line x1="757.3" y1="323.0" x2="757.3" y2="328.0" stroke="#475569" stroke-width="1"/>
<text x="757.3" y="341.0" font-size="10" font-weight="400" fill="#64748b" text-anchor="middle">1.5</text>
<line x1="586.1" y1="165.7" x2="586.1" y2="176.8" stroke="#2563eb" stroke-width="1.6" opacity="0.72"/>
<line x1="582.1" y1="165.7" x2="590.1" y2="165.7" stroke="#2563eb" stroke-width="1.6" opacity="0.72"/>
<line x1="582.1" y1="176.8" x2="590.1" y2="176.8" stroke="#2563eb" stroke-width="1.6" opacity="0.72"/>
<circle cx="586.1" cy="171.1" r="4.4" fill="#2563eb" stroke="#ffffff" stroke-width="1.4"/>
<title>Base T=0.7 base no penalty: 74.1% [71.3, 76.7]</title>
<line x1="671.7" y1="173.8" x2="671.7" y2="185.5" stroke="#2563eb" stroke-width="1.6" opacity="0.72"/>
<line x1="667.7" y1="173.8" x2="675.7" y2="173.8" stroke="#2563eb" stroke-width="1.6" opacity="0.72"/>
<line x1="667.7" y1="185.5" x2="675.7" y2="185.5" stroke="#2563eb" stroke-width="1.6" opacity="0.72"/>
<circle cx="671.7" cy="179.5" r="4.4" fill="#2563eb" stroke="#ffffff" stroke-width="1.4"/>
<title>Base T=1.1 base no penalty: 70.0% [67.1, 72.8]</title>
<line x1="714.5" y1="188.2" x2="714.5" y2="200.5" stroke="#2563eb" stroke-width="1.6" opacity="0.72"/>
<line x1="710.5" y1="188.2" x2="718.5" y2="188.2" stroke="#2563eb" stroke-width="1.6" opacity="0.72"/>
<line x1="710.5" y1="200.5" x2="718.5" y2="200.5" stroke="#2563eb" stroke-width="1.6" opacity="0.72"/>
<circle cx="714.5" cy="194.3" r="4.4" fill="#2563eb" stroke="#ffffff" stroke-width="1.4"/>
<title>Base T=1.3 base no penalty: 62.8% [59.8, 65.7]</title>
<line x1="757.3" y1="211.7" x2="757.3" y2="224.4" stroke="#2563eb" stroke-width="1.6" opacity="0.72"/>
<line x1="753.3" y1="211.7" x2="761.3" y2="211.7" stroke="#2563eb" stroke-width="1.6" opacity="0.72"/>
<line x1="753.3" y1="224.4" x2="761.3" y2="224.4" stroke="#2563eb" stroke-width="1.6" opacity="0.72"/>
<circle cx="757.3" cy="218.0" r="4.4" fill="#2563eb" stroke="#ffffff" stroke-width="1.4"/>
<title>Base T=1.5 base no penalty: 51.2% [48.1, 54.3]</title>
<line x1="568.6" y1="177.2" x2="568.6" y2="189.0" stroke="#c2410c" stroke-width="1.6" opacity="0.72"/>
<line x1="564.6" y1="177.2" x2="572.6" y2="177.2" stroke="#c2410c" stroke-width="1.6" opacity="0.72"/>
<line x1="564.6" y1="189.0" x2="572.6" y2="189.0" stroke="#c2410c" stroke-width="1.6" opacity="0.72"/>
<polygon points="568.6,177.2 574.4,183.0 568.6,188.8 562.8,183.0" fill="#c2410c" stroke="#ffffff" stroke-width="1.3"/>
<title>Precise T=0.6, no presence penalty, k=1: 68.3% [65.4, 71.1]</title>
<line x1="646.4" y1="166.7" x2="646.4" y2="177.9" stroke="#7c3aed" stroke-width="1.6" opacity="0.72"/>
<line x1="642.4" y1="166.7" x2="650.4" y2="166.7" stroke="#7c3aed" stroke-width="1.6" opacity="0.72"/>
<line x1="642.4" y1="177.9" x2="650.4" y2="177.9" stroke="#7c3aed" stroke-width="1.6" opacity="0.72"/>
<polygon points="646.4,166.3 652.2,172.1 646.4,177.9 640.6,172.1" fill="#7c3aed" stroke="#ffffff" stroke-width="1.3"/>
<title>General no PP T=1.0, no presence penalty, k=1: 73.6% [70.8, 76.2]</title>
<line x1="654.2" y1="159.4" x2="654.2" y2="165.4" stroke="#047857" stroke-width="1.6" opacity="0.72"/>
<line x1="650.2" y1="159.4" x2="658.2" y2="159.4" stroke="#047857" stroke-width="1.6" opacity="0.72"/>
<line x1="650.2" y1="165.4" x2="658.2" y2="165.4" stroke="#047857" stroke-width="1.6" opacity="0.72"/>
<polygon points="654.2,156.5 660.0,162.3 654.2,168.1 648.4,162.3" fill="#047857" stroke="#ffffff" stroke-width="1.3"/>
<title>General + PP T=1.0, presence penalty=1.5, k=3; accuracy uses sample-level metric: 78.4% [76.9, 79.8]</title>
<text x="22.0" y="220.5" font-size="13" font-weight="700" fill="#0f172a" text-anchor="middle" transform="rotate(-90.0 22.0 220.5)">Eval temperature</text>
<text x="425.0" y="377.0" font-size="12" font-weight="600" fill="#64748b" text-anchor="middle">Eval temperature</text>
<rect x="82.0" y="409.0" width="214.0" height="205.0" fill="#ffffff" stroke="#e2e8f0" stroke-width="1"/>
<line x1="82.0" y1="614.0" x2="296.0" y2="614.0" stroke="#e2e8f0" stroke-width="1"/>
<text x="74.0" y="618.0" font-size="10" font-weight="400" fill="#64748b" text-anchor="end">0</text>
<line x1="82.0" y1="562.8" x2="296.0" y2="562.8" stroke="#e2e8f0" stroke-width="1"/>
<text x="74.0" y="566.8" font-size="10" font-weight="400" fill="#64748b" text-anchor="end">25</text>
<line x1="82.0" y1="511.5" x2="296.0" y2="511.5" stroke="#e2e8f0" stroke-width="1"/>
<text x="74.0" y="515.5" font-size="10" font-weight="400" fill="#64748b" text-anchor="end">50</text>
<line x1="82.0" y1="460.2" x2="296.0" y2="460.2" stroke="#e2e8f0" stroke-width="1"/>
<text x="74.0" y="464.2" font-size="10" font-weight="400" fill="#64748b" text-anchor="end">75</text>
<line x1="82.0" y1="409.0" x2="296.0" y2="409.0" stroke="#e2e8f0" stroke-width="1"/>
<text x="74.0" y="413.0" font-size="10" font-weight="400" fill="#64748b" text-anchor="end">100</text>
<line x1="82.0" y1="614.0" x2="296.0" y2="614.0" stroke="#475569" stroke-width="1.2"/>
<line x1="82.0" y1="409.0" x2="82.0" y2="614.0" stroke="#475569" stroke-width="1.2"/>
<line x1="91.7" y1="614.0" x2="91.7" y2="619.0" stroke="#475569" stroke-width="1"/>
<text x="91.7" y="632.0" font-size="10" font-weight="400" fill="#64748b" text-anchor="middle">0</text>
<line x1="111.2" y1="614.0" x2="111.2" y2="619.0" stroke="#475569" stroke-width="1"/>
<text x="111.2" y="632.0" font-size="10" font-weight="400" fill="#64748b" text-anchor="middle">0.02</text>
<line x1="140.4" y1="614.0" x2="140.4" y2="619.0" stroke="#475569" stroke-width="1"/>
<text x="140.4" y="632.0" font-size="10" font-weight="400" fill="#64748b" text-anchor="middle">0.05</text>
<line x1="189.0" y1="614.0" x2="189.0" y2="619.0" stroke="#475569" stroke-width="1"/>
<text x="189.0" y="632.0" font-size="10" font-weight="400" fill="#64748b" text-anchor="middle">0.10</text>
<line x1="286.3" y1="614.0" x2="286.3" y2="619.0" stroke="#475569" stroke-width="1"/>
<text x="286.3" y="632.0" font-size="10" font-weight="400" fill="#64748b" text-anchor="middle">0.20</text>
<line x1="111.2" y1="474.0" x2="111.2" y2="486.1" stroke="#2563eb" stroke-width="1.6" opacity="0.72"/>
<line x1="107.2" y1="474.0" x2="115.2" y2="474.0" stroke="#2563eb" stroke-width="1.6" opacity="0.72"/>
<line x1="107.2" y1="486.1" x2="115.2" y2="486.1" stroke="#2563eb" stroke-width="1.6" opacity="0.72"/>
<circle cx="111.2" cy="479.9" r="4.4" fill="#2563eb" stroke="#ffffff" stroke-width="1.4"/>
<title>Base min_p=0.02 base T=1.0 no penalty: 65.4% [62.4, 68.3]</title>
<line x1="140.4" y1="479.0" x2="140.4" y2="491.3" stroke="#2563eb" stroke-width="1.6" opacity="0.72"/>
<line x1="136.4" y1="479.0" x2="144.4" y2="479.0" stroke="#2563eb" stroke-width="1.6" opacity="0.72"/>
<line x1="136.4" y1="491.3" x2="144.4" y2="491.3" stroke="#2563eb" stroke-width="1.6" opacity="0.72"/>
<circle cx="140.4" cy="485.1" r="4.4" fill="#2563eb" stroke="#ffffff" stroke-width="1.4"/>
<title>Base min_p=0.05 base T=1.0 no penalty: 62.9% [59.9, 65.8]</title>
<line x1="189.0" y1="485.1" x2="189.0" y2="497.5" stroke="#2563eb" stroke-width="1.6" opacity="0.72"/>
<line x1="185.0" y1="485.1" x2="193.0" y2="485.1" stroke="#2563eb" stroke-width="1.6" opacity="0.72"/>
<line x1="185.0" y1="497.5" x2="193.0" y2="497.5" stroke="#2563eb" stroke-width="1.6" opacity="0.72"/>
<circle cx="189.0" cy="491.2" r="4.4" fill="#2563eb" stroke="#ffffff" stroke-width="1.4"/>
<title>Base min_p=0.10 base T=1.0 no penalty: 59.9% [56.8, 62.9]</title>
<line x1="286.3" y1="503.9" x2="286.3" y2="516.6" stroke="#2563eb" stroke-width="1.6" opacity="0.72"/>
<line x1="282.3" y1="503.9" x2="290.3" y2="503.9" stroke="#2563eb" stroke-width="1.6" opacity="0.72"/>
<line x1="282.3" y1="516.6" x2="290.3" y2="516.6" stroke="#2563eb" stroke-width="1.6" opacity="0.72"/>
<circle cx="286.3" cy="510.3" r="4.4" fill="#2563eb" stroke="#ffffff" stroke-width="1.4"/>
<title>Base min_p=0.20 base T=1.0 no penalty: 50.6% [47.5, 53.7]</title>
<rect x="318.0" y="409.0" width="214.0" height="205.0" fill="#ffffff" stroke="#e2e8f0" stroke-width="1"/>
<line x1="318.0" y1="614.0" x2="532.0" y2="614.0" stroke="#e2e8f0" stroke-width="1"/>
<line x1="318.0" y1="562.8" x2="532.0" y2="562.8" stroke="#e2e8f0" stroke-width="1"/>
<line x1="318.0" y1="511.5" x2="532.0" y2="511.5" stroke="#e2e8f0" stroke-width="1"/>
<line x1="318.0" y1="460.2" x2="532.0" y2="460.2" stroke="#e2e8f0" stroke-width="1"/>
<line x1="318.0" y1="409.0" x2="532.0" y2="409.0" stroke="#e2e8f0" stroke-width="1"/>
<line x1="318.0" y1="614.0" x2="532.0" y2="614.0" stroke="#475569" stroke-width="1.2"/>
<line x1="318.0" y1="409.0" x2="318.0" y2="614.0" stroke="#475569" stroke-width="1.2"/>
<line x1="327.7" y1="614.0" x2="327.7" y2="619.0" stroke="#475569" stroke-width="1"/>
<text x="327.7" y="632.0" font-size="10" font-weight="400" fill="#64748b" text-anchor="middle">0</text>
<line x1="347.2" y1="614.0" x2="347.2" y2="619.0" stroke="#475569" stroke-width="1"/>
<text x="347.2" y="632.0" font-size="10" font-weight="400" fill="#64748b" text-anchor="middle">0.02</text>
<line x1="376.4" y1="614.0" x2="376.4" y2="619.0" stroke="#475569" stroke-width="1"/>
<text x="376.4" y="632.0" font-size="10" font-weight="400" fill="#64748b" text-anchor="middle">0.05</text>
<line x1="425.0" y1="614.0" x2="425.0" y2="619.0" stroke="#475569" stroke-width="1"/>
<text x="425.0" y="632.0" font-size="10" font-weight="400" fill="#64748b" text-anchor="middle">0.10</text>
<line x1="522.3" y1="614.0" x2="522.3" y2="619.0" stroke="#475569" stroke-width="1"/>
<text x="522.3" y="632.0" font-size="10" font-weight="400" fill="#64748b" text-anchor="middle">0.20</text>
<line x1="347.2" y1="487.5" x2="347.2" y2="510.4" stroke="#2563eb" stroke-width="1.6" opacity="0.72"/>
<line x1="343.2" y1="487.5" x2="351.2" y2="487.5" stroke="#2563eb" stroke-width="1.6" opacity="0.72"/>
<line x1="343.2" y1="510.4" x2="351.2" y2="510.4" stroke="#2563eb" stroke-width="1.6" opacity="0.72"/>
<circle cx="347.2" cy="498.8" r="4.4" fill="#2563eb" stroke="#ffffff" stroke-width="1.4"/>
<title>Base min_p=0.02 base T=1.0 no penalty: 56.2% [50.5, 61.7]</title>
<line x1="376.4" y1="494.9" x2="376.4" y2="518.0" stroke="#2563eb" stroke-width="1.6" opacity="0.72"/>
<line x1="372.4" y1="494.9" x2="380.4" y2="494.9" stroke="#2563eb" stroke-width="1.6" opacity="0.72"/>
<line x1="372.4" y1="518.0" x2="380.4" y2="518.0" stroke="#2563eb" stroke-width="1.6" opacity="0.72"/>
<circle cx="376.4" cy="506.4" r="4.4" fill="#2563eb" stroke="#ffffff" stroke-width="1.4"/>
<title>Base min_p=0.05 base T=1.0 no penalty: 52.5% [46.9, 58.1]</title>
<line x1="425.0" y1="501.6" x2="425.0" y2="524.7" stroke="#2563eb" stroke-width="1.6" opacity="0.72"/>
<line x1="421.0" y1="501.6" x2="429.0" y2="501.6" stroke="#2563eb" stroke-width="1.6" opacity="0.72"/>
<line x1="421.0" y1="524.7" x2="429.0" y2="524.7" stroke="#2563eb" stroke-width="1.6" opacity="0.72"/>
<circle cx="425.0" cy="513.2" r="4.4" fill="#2563eb" stroke="#ffffff" stroke-width="1.4"/>
<title>Base min_p=0.10 base T=1.0 no penalty: 49.2% [43.5, 54.8]</title>
<line x1="522.3" y1="522.9" x2="522.3" y2="545.4" stroke="#2563eb" stroke-width="1.6" opacity="0.72"/>
<line x1="518.3" y1="522.9" x2="526.3" y2="522.9" stroke="#2563eb" stroke-width="1.6" opacity="0.72"/>
<line x1="518.3" y1="545.4" x2="526.3" y2="545.4" stroke="#2563eb" stroke-width="1.6" opacity="0.72"/>
<circle cx="522.3" cy="534.5" r="4.4" fill="#2563eb" stroke="#ffffff" stroke-width="1.4"/>
<title>Base min_p=0.20 base T=1.0 no penalty: 38.8% [33.4, 44.4]</title>
<rect x="554.0" y="409.0" width="214.0" height="205.0" fill="#ffffff" stroke="#e2e8f0" stroke-width="1"/>
<line x1="554.0" y1="614.0" x2="768.0" y2="614.0" stroke="#e2e8f0" stroke-width="1"/>
<line x1="554.0" y1="562.8" x2="768.0" y2="562.8" stroke="#e2e8f0" stroke-width="1"/>
<line x1="554.0" y1="511.5" x2="768.0" y2="511.5" stroke="#e2e8f0" stroke-width="1"/>
<line x1="554.0" y1="460.2" x2="768.0" y2="460.2" stroke="#e2e8f0" stroke-width="1"/>
<line x1="554.0" y1="409.0" x2="768.0" y2="409.0" stroke="#e2e8f0" stroke-width="1"/>
<line x1="554.0" y1="614.0" x2="768.0" y2="614.0" stroke="#475569" stroke-width="1.2"/>
<line x1="554.0" y1="409.0" x2="554.0" y2="614.0" stroke="#475569" stroke-width="1.2"/>
<line x1="563.7" y1="614.0" x2="563.7" y2="619.0" stroke="#475569" stroke-width="1"/>
<text x="563.7" y="632.0" font-size="10" font-weight="400" fill="#64748b" text-anchor="middle">0</text>
<line x1="583.2" y1="614.0" x2="583.2" y2="619.0" stroke="#475569" stroke-width="1"/>
<text x="583.2" y="632.0" font-size="10" font-weight="400" fill="#64748b" text-anchor="middle">0.02</text>
<line x1="612.4" y1="614.0" x2="612.4" y2="619.0" stroke="#475569" stroke-width="1"/>
<text x="612.4" y="632.0" font-size="10" font-weight="400" fill="#64748b" text-anchor="middle">0.05</text>
<line x1="661.0" y1="614.0" x2="661.0" y2="619.0" stroke="#475569" stroke-width="1"/>
<text x="661.0" y="632.0" font-size="10" font-weight="400" fill="#64748b" text-anchor="middle">0.10</text>
<line x1="758.3" y1="614.0" x2="758.3" y2="619.0" stroke="#475569" stroke-width="1"/>
<text x="758.3" y="632.0" font-size="10" font-weight="400" fill="#64748b" text-anchor="middle">0.20</text>
<line x1="583.2" y1="455.1" x2="583.2" y2="466.2" stroke="#2563eb" stroke-width="1.6" opacity="0.72"/>
<line x1="579.2" y1="455.1" x2="587.2" y2="455.1" stroke="#2563eb" stroke-width="1.6" opacity="0.72"/>
<line x1="579.2" y1="466.2" x2="587.2" y2="466.2" stroke="#2563eb" stroke-width="1.6" opacity="0.72"/>
<circle cx="583.2" cy="460.5" r="4.4" fill="#2563eb" stroke="#ffffff" stroke-width="1.4"/>
<title>Base min_p=0.02 base T=1.0 no penalty: 74.9% [72.1, 77.5]</title>
<line x1="612.4" y1="460.7" x2="612.4" y2="472.1" stroke="#2563eb" stroke-width="1.6" opacity="0.72"/>
<line x1="608.4" y1="460.7" x2="616.4" y2="460.7" stroke="#2563eb" stroke-width="1.6" opacity="0.72"/>
<line x1="608.4" y1="472.1" x2="616.4" y2="472.1" stroke="#2563eb" stroke-width="1.6" opacity="0.72"/>
<circle cx="612.4" cy="466.2" r="4.4" fill="#2563eb" stroke="#ffffff" stroke-width="1.4"/>
<title>Base min_p=0.05 base T=1.0 no penalty: 72.1% [69.2, 74.8]</title>
<line x1="661.0" y1="467.2" x2="661.0" y2="479.0" stroke="#2563eb" stroke-width="1.6" opacity="0.72"/>
<line x1="657.0" y1="467.2" x2="665.0" y2="467.2" stroke="#2563eb" stroke-width="1.6" opacity="0.72"/>
<line x1="657.0" y1="479.0" x2="665.0" y2="479.0" stroke="#2563eb" stroke-width="1.6" opacity="0.72"/>
<circle cx="661.0" cy="473.0" r="4.4" fill="#2563eb" stroke="#ffffff" stroke-width="1.4"/>
<title>Base min_p=0.10 base T=1.0 no penalty: 68.8% [65.9, 71.6]</title>
<line x1="758.3" y1="493.2" x2="758.3" y2="505.7" stroke="#2563eb" stroke-width="1.6" opacity="0.72"/>
<line x1="754.3" y1="493.2" x2="762.3" y2="493.2" stroke="#2563eb" stroke-width="1.6" opacity="0.72"/>
<line x1="754.3" y1="505.7" x2="762.3" y2="505.7" stroke="#2563eb" stroke-width="1.6" opacity="0.72"/>
<circle cx="758.3" cy="499.4" r="4.4" fill="#2563eb" stroke="#ffffff" stroke-width="1.4"/>
<title>Base min_p=0.20 base T=1.0 no penalty: 55.9% [52.8, 58.9]</title>
<text x="22.0" y="511.5" font-size="13" font-weight="700" fill="#0f172a" text-anchor="middle" transform="rotate(-90.0 22.0 511.5)">min-p</text>
<text x="425.0" y="668.0" font-size="12" font-weight="600" fill="#64748b" text-anchor="middle">min-p</text>
</svg>