<?xml version="1.0" encoding="UTF-8"?>
<svg xmlns="http://www.w3.org/2000/svg" width="1180" height="760" viewBox="0 0 1180 760" role="img" aria-labelledby="title desc">
<title id="title">V1.1-E08C gradient norm and estimated signal magnitude</title>
<desc id="desc">Gradient norm at each optimizer step and absolute estimated gradient signal at checkpoints for five V1.1-E08C experiment runs.</desc>
<rect width="100%" height="100%" fill="#ffffff"/>
<text x="86" y="36" font-family="Inter, Segoe UI, Arial, sans-serif" font-size="24" font-weight="700" fill="#0f172a">Gradient Norm and Estimated Gradient Signal </text>
<text x="86" y="62" font-family="Inter, Segoe UI, Arial, sans-serif" font-size="13" fill="#475569">Solid lines show gradient norm per optimizer step; dashed markers show |estimated signal| at checkpoints.</text>
<rect x="86" y="84" width="808" height="594" fill="#ffffff" stroke="#cbd5e1" stroke-width="1"/>
<line x1="86" y1="678.00" x2="894" y2="678.00" stroke="#e2e8f0" stroke-width="1"/>
<text x="74" y="682.00" text-anchor="end" font-family="Inter, Segoe UI, Arial, sans-serif" font-size="12" fill="#475569">0</text>
<line x1="86" y1="559.20" x2="894" y2="559.20" stroke="#e2e8f0" stroke-width="1"/>
<text x="74" y="563.20" text-anchor="end" font-family="Inter, Segoe UI, Arial, sans-serif" font-size="12" fill="#475569">0.2</text>
<line x1="86" y1="440.40" x2="894" y2="440.40" stroke="#e2e8f0" stroke-width="1"/>
<text x="74" y="444.40" text-anchor="end" font-family="Inter, Segoe UI, Arial, sans-serif" font-size="12" fill="#475569">0.4</text>
<line x1="86" y1="321.60" x2="894" y2="321.60" stroke="#e2e8f0" stroke-width="1"/>
<text x="74" y="325.60" text-anchor="end" font-family="Inter, Segoe UI, Arial, sans-serif" font-size="12" fill="#475569">0.6</text>
<line x1="86" y1="202.80" x2="894" y2="202.80" stroke="#e2e8f0" stroke-width="1"/>
<text x="74" y="206.80" text-anchor="end" font-family="Inter, Segoe UI, Arial, sans-serif" font-size="12" fill="#475569">0.8</text>
<line x1="86" y1="84.00" x2="894" y2="84.00" stroke="#e2e8f0" stroke-width="1"/>
<text x="74" y="88.00" text-anchor="end" font-family="Inter, Segoe UI, Arial, sans-serif" font-size="12" fill="#475569">1</text>
<line x1="86.00" y1="678" x2="86.00" y2="684" stroke="#475569" stroke-width="1"/>
<text x="86.00" y="702" text-anchor="middle" font-family="Inter, Segoe UI, Arial, sans-serif" font-size="12" fill="#475569">11</text>
<line x1="173.61" y1="678" x2="173.61" y2="684" stroke="#475569" stroke-width="1"/>
<text x="173.61" y="702" text-anchor="middle" font-family="Inter, Segoe UI, Arial, sans-serif" font-size="12" fill="#475569">20</text>
<line x1="368.31" y1="678" x2="368.31" y2="684" stroke="#475569" stroke-width="1"/>
<text x="368.31" y="702" text-anchor="middle" font-family="Inter, Segoe UI, Arial, sans-serif" font-size="12" fill="#475569">40</text>
<line x1="563.01" y1="678" x2="563.01" y2="684" stroke="#475569" stroke-width="1"/>
<text x="563.01" y="702" text-anchor="middle" font-family="Inter, Segoe UI, Arial, sans-serif" font-size="12" fill="#475569">60</text>
<line x1="757.71" y1="678" x2="757.71" y2="684" stroke="#475569" stroke-width="1"/>
<text x="757.71" y="702" text-anchor="middle" font-family="Inter, Segoe UI, Arial, sans-serif" font-size="12" fill="#475569">80</text>
<line x1="894.00" y1="678" x2="894.00" y2="684" stroke="#475569" stroke-width="1"/>
<text x="894.00" y="702" text-anchor="middle" font-family="Inter, Segoe UI, Arial, sans-serif" font-size="12" fill="#475569">94</text>
<line x1="86" y1="678" x2="894" y2="678" stroke="#475569" stroke-width="1.2"/>
<line x1="86" y1="84" x2="86" y2="678" stroke="#475569" stroke-width="1.2"/>
<text x="490.00" y="736" text-anchor="middle" font-family="Inter, Segoe UI, Arial, sans-serif" font-size="14" font-weight="600" fill="#0f172a">Optimizer step</text>
<text x="22" y="381.00" text-anchor="middle" font-family="Inter, Segoe UI, Arial, sans-serif" font-size="14" font-weight="600" fill="#0f172a" transform="rotate(-90 22 381.00)">Gradient magnitude</text>
<polyline points="86.00,244.10 95.73,306.75 105.47,297.47 115.20,309.07 124.94,318.35 134.67,297.47 144.41,320.67 154.14,343.88 163.88,346.20 173.61,320.67 183.35,371.72 193.08,336.91 202.82,348.52 212.55,350.84 222.29,378.68 232.02,381.00 241.76,348.52 251.49,346.20 261.23,362.44 270.96,360.12 280.70,384.48 290.43,381.00 300.17,350.84 309.90,329.95 319.64,369.40 329.37,367.08 339.11,360.12 348.84,371.72 358.58,369.40 368.31,378.68 378.05,348.52 387.78,383.32 397.52,384.48 407.25,353.16 416.99,393.76 426.72,343.88 436.46,405.36 446.19,357.80 455.93,357.80 465.66,387.96 475.40,389.12 485.13,392.60 494.87,386.80 504.60,378.68 514.34,320.67 524.07,385.64 533.81,408.84 543.54,369.40 553.28,398.40 563.01,389.12 572.75,378.68 582.48,387.96 592.22,393.76 601.95,334.59 611.69,381.00 621.42,400.72 631.16,387.96 640.89,403.04 650.63,408.84 660.36,384.48 670.10,416.96 679.83,411.16 689.57,413.48 699.30,384.48 709.04,399.56 718.77,378.68 728.51,391.44 738.24,407.68 747.98,413.48 757.71,415.80 767.45,410.00 777.18,384.48 786.92,400.72 796.65,398.40 806.39,357.80 816.12,407.68 825.86,418.12 835.59,392.60 845.33,360.12 855.06,393.76 864.80,408.84 874.53,411.16 884.27,397.24 894.00,313.12" fill="none" stroke="#2563eb" stroke-width="2.3" stroke-linecap="round" stroke-linejoin="round" opacity="0.82"/>
<polyline points="86.00,559.32 193.08,644.84 300.17,504.82 407.25,581.32 514.34,626.72 621.42,664.91 728.51,586.48 835.59,579.79 894.00,570.47" fill="none" stroke="#2563eb" stroke-width="2.0" stroke-linecap="round" stroke-linejoin="round" opacity="0.95" stroke-dasharray="6 5"/>
<circle cx="86.00" cy="559.32" r="3.4" fill="#ffffff" stroke="#2563eb" stroke-width="1.8"/>
<circle cx="193.08" cy="644.84" r="3.4" fill="#ffffff" stroke="#2563eb" stroke-width="1.8"/>
<circle cx="300.17" cy="504.82" r="3.4" fill="#ffffff" stroke="#2563eb" stroke-width="1.8"/>
<circle cx="407.25" cy="581.32" r="3.4" fill="#ffffff" stroke="#2563eb" stroke-width="1.8"/>
<circle cx="514.34" cy="626.72" r="3.4" fill="#ffffff" stroke="#2563eb" stroke-width="1.8"/>
<circle cx="621.42" cy="664.91" r="3.4" fill="#ffffff" stroke="#2563eb" stroke-width="1.8"/>
<circle cx="728.51" cy="586.48" r="3.4" fill="#ffffff" stroke="#2563eb" stroke-width="1.8"/>
<circle cx="835.59" cy="579.79" r="3.4" fill="#ffffff" stroke="#2563eb" stroke-width="1.8"/>
<circle cx="894.00" cy="570.47" r="3.4" fill="#ffffff" stroke="#2563eb" stroke-width="1.8"/>
<polyline points="86.00,232.50 95.73,239.46 105.47,223.22 115.20,290.51 124.94,281.23 134.67,290.51 144.41,262.66 154.14,297.47 163.88,348.52 173.61,262.66 183.35,343.88 193.08,327.63 202.82,325.31 212.55,336.91 222.29,371.72 232.02,360.12 241.76,325.31 251.49,332.27 261.23,339.23 270.96,339.23 280.70,364.76 290.43,369.40 300.17,313.71 309.90,322.99 319.64,355.48 329.37,334.59 339.11,364.76 348.84,346.20 358.58,355.48 368.31,355.48 378.05,360.12 387.78,382.16 397.52,367.08 407.25,353.16 416.99,369.40 426.72,339.23 436.46,389.12 446.19,360.12 455.93,346.20 465.66,382.16 475.40,387.96 485.13,391.44 494.87,378.68 504.60,384.48 514.34,329.95 524.07,378.68 533.81,414.64 543.54,376.36 553.28,389.12 563.01,378.68 572.75,367.08 582.48,378.68 592.22,390.28 601.95,355.48 611.69,371.72 621.42,396.08 631.16,382.16 640.89,404.20 650.63,399.56 660.36,376.36 670.10,412.32 679.83,401.88 689.57,407.68 699.30,383.32 709.04,400.72 718.77,378.68 728.51,382.16 738.24,414.64 747.98,411.16 757.71,413.48 767.45,412.32 777.18,384.48 786.92,384.48 796.65,397.24 806.39,364.76 816.12,412.32 825.86,418.12 835.59,369.40 845.33,362.44 855.06,399.56 864.80,411.16 874.53,422.77 884.27,396.08 894.00,280.60" fill="none" stroke="#c2410c" stroke-width="2.3" stroke-linecap="round" stroke-linejoin="round" opacity="0.82"/>
<polyline points="86.00,589.45 193.08,569.85 300.17,505.27 407.25,570.37 514.34,614.28 621.42,665.32 728.51,566.75 835.59,547.07 894.00,537.57" fill="none" stroke="#c2410c" stroke-width="2.0" stroke-linecap="round" stroke-linejoin="round" opacity="0.95" stroke-dasharray="6 5"/>
<circle cx="86.00" cy="589.45" r="3.4" fill="#ffffff" stroke="#c2410c" stroke-width="1.8"/>
<circle cx="193.08" cy="569.85" r="3.4" fill="#ffffff" stroke="#c2410c" stroke-width="1.8"/>
<circle cx="300.17" cy="505.27" r="3.4" fill="#ffffff" stroke="#c2410c" stroke-width="1.8"/>
<circle cx="407.25" cy="570.37" r="3.4" fill="#ffffff" stroke="#c2410c" stroke-width="1.8"/>
<circle cx="514.34" cy="614.28" r="3.4" fill="#ffffff" stroke="#c2410c" stroke-width="1.8"/>
<circle cx="621.42" cy="665.32" r="3.4" fill="#ffffff" stroke="#c2410c" stroke-width="1.8"/>
<circle cx="728.51" cy="566.75" r="3.4" fill="#ffffff" stroke="#c2410c" stroke-width="1.8"/>
<circle cx="835.59" cy="547.07" r="3.4" fill="#ffffff" stroke="#c2410c" stroke-width="1.8"/>
<circle cx="894.00" cy="537.57" r="3.4" fill="#ffffff" stroke="#c2410c" stroke-width="1.8"/>
<polyline points="86.00,227.86 95.73,139.69 105.47,158.25 115.20,281.23 124.94,230.18 134.67,264.98 144.41,246.42 154.14,274.27 163.88,290.51 173.61,241.78 183.35,336.91 193.08,288.19 202.82,332.27 212.55,313.71 222.29,357.80 232.02,339.23 241.76,329.95 251.49,313.71 261.23,341.55 270.96,353.16 280.70,353.16 290.43,367.08 300.17,348.52 309.90,309.07 319.64,346.20 329.37,339.23 339.11,369.40 348.84,320.67 358.58,346.20 368.31,362.44 378.05,357.80 387.78,378.68 397.52,367.08 407.25,350.84 416.99,355.48 426.72,341.55 436.46,382.16 446.19,341.55 455.93,341.55 465.66,364.76 475.40,390.28 485.13,371.72 494.87,371.72 504.60,378.68 514.34,329.95 524.07,378.68 533.81,404.20 543.54,369.40 553.28,385.64 563.01,381.00 572.75,371.72 582.48,378.68 592.22,391.44 601.95,360.12 611.69,364.76 621.42,387.96 631.16,376.36 640.89,400.72 650.63,391.44 660.36,364.76 670.10,407.68 679.83,393.76 689.57,400.72 699.30,389.12 709.04,389.12 718.77,374.04 728.51,393.76 738.24,405.36 747.98,405.36 757.71,412.32 767.45,407.68 777.18,387.96 786.92,398.40 796.65,403.04 806.39,371.72 816.12,413.48 825.86,416.96 835.59,391.44 845.33,369.40 855.06,405.36 864.80,411.16 874.53,426.25 884.27,398.40 894.00,263.93" fill="none" stroke="#047857" stroke-width="2.3" stroke-linecap="round" stroke-linejoin="round" opacity="0.82"/>
<polyline points="86.00,415.45 193.08,557.25 300.17,494.65 407.25,539.76 514.34,586.83 621.42,667.72 728.51,553.12 835.59,538.11 894.00,499.84" fill="none" stroke="#047857" stroke-width="2.0" stroke-linecap="round" stroke-linejoin="round" opacity="0.95" stroke-dasharray="6 5"/>
<circle cx="86.00" cy="415.45" r="3.4" fill="#ffffff" stroke="#047857" stroke-width="1.8"/>
<circle cx="193.08" cy="557.25" r="3.4" fill="#ffffff" stroke="#047857" stroke-width="1.8"/>
<circle cx="300.17" cy="494.65" r="3.4" fill="#ffffff" stroke="#047857" stroke-width="1.8"/>
<circle cx="407.25" cy="539.76" r="3.4" fill="#ffffff" stroke="#047857" stroke-width="1.8"/>
<circle cx="514.34" cy="586.83" r="3.4" fill="#ffffff" stroke="#047857" stroke-width="1.8"/>
<circle cx="621.42" cy="667.72" r="3.4" fill="#ffffff" stroke="#047857" stroke-width="1.8"/>
<circle cx="728.51" cy="553.12" r="3.4" fill="#ffffff" stroke="#047857" stroke-width="1.8"/>
<circle cx="835.59" cy="538.11" r="3.4" fill="#ffffff" stroke="#047857" stroke-width="1.8"/>
<circle cx="894.00" cy="499.84" r="3.4" fill="#ffffff" stroke="#047857" stroke-width="1.8"/>
<polyline points="86.00,206.98 95.73,223.22 105.47,227.86 115.20,244.10 124.94,288.19 134.67,309.07 144.41,316.03 154.14,292.83 163.88,288.19 173.61,327.63 183.35,316.03 193.08,316.03 202.82,334.59 212.55,339.23 222.29,367.08 232.02,332.27 241.76,355.48 251.49,382.16 261.23,346.20 270.96,353.16 280.70,381.00 290.43,367.08 300.17,327.63 309.90,384.48 319.64,355.48 329.37,404.20 339.11,381.00 348.84,362.44 358.58,371.72 368.31,367.08 378.05,397.24 387.78,386.80 397.52,360.12 407.25,325.31 416.99,381.00 426.72,167.53 436.46,383.32 446.19,406.52 455.93,381.00 465.66,367.08 475.40,374.04 485.13,405.36 494.87,376.36 504.60,413.48 514.34,362.44 524.07,399.56 533.81,384.48 543.54,378.68 553.28,362.44 563.01,360.12 572.75,398.40 582.48,371.72 592.22,364.76 601.95,396.08 611.69,374.04 621.42,369.40 631.16,389.12 640.89,378.68 650.63,397.24 660.36,418.12 670.10,387.96 679.83,383.32 689.57,378.68 699.30,393.76 709.04,391.44 718.77,400.72 728.51,412.32 738.24,418.12 747.98,374.04 757.71,414.64 767.45,400.72 777.18,430.89 786.92,390.28 796.65,369.40 806.39,413.48 816.12,426.25 825.86,386.80 835.59,362.44 845.33,332.27 855.06,339.23 864.80,422.77 874.53,405.36 884.27,384.48 894.00,370.51" fill="none" stroke="#7c3aed" stroke-width="2.3" stroke-linecap="round" stroke-linejoin="round" opacity="0.82"/>
<polyline points="86.00,468.86 193.08,578.96 300.17,569.50 407.25,578.00 514.34,667.07 621.42,591.30 728.51,579.44 835.59,581.54 894.00,611.66" fill="none" stroke="#7c3aed" stroke-width="2.0" stroke-linecap="round" stroke-linejoin="round" opacity="0.95" stroke-dasharray="6 5"/>
<circle cx="86.00" cy="468.86" r="3.4" fill="#ffffff" stroke="#7c3aed" stroke-width="1.8"/>
<circle cx="193.08" cy="578.96" r="3.4" fill="#ffffff" stroke="#7c3aed" stroke-width="1.8"/>
<circle cx="300.17" cy="569.50" r="3.4" fill="#ffffff" stroke="#7c3aed" stroke-width="1.8"/>
<circle cx="407.25" cy="578.00" r="3.4" fill="#ffffff" stroke="#7c3aed" stroke-width="1.8"/>
<circle cx="514.34" cy="667.07" r="3.4" fill="#ffffff" stroke="#7c3aed" stroke-width="1.8"/>
<circle cx="621.42" cy="591.30" r="3.4" fill="#ffffff" stroke="#7c3aed" stroke-width="1.8"/>
<circle cx="728.51" cy="579.44" r="3.4" fill="#ffffff" stroke="#7c3aed" stroke-width="1.8"/>
<circle cx="835.59" cy="581.54" r="3.4" fill="#ffffff" stroke="#7c3aed" stroke-width="1.8"/>
<circle cx="894.00" cy="611.66" r="3.4" fill="#ffffff" stroke="#7c3aed" stroke-width="1.8"/>
<polyline points="86.00,255.70 95.73,260.34 105.47,195.38 115.20,269.62 124.94,332.27 134.67,339.23 144.41,316.03 154.14,339.23 163.88,332.27 173.61,309.07 183.35,353.16 193.08,353.16 202.82,378.68 212.55,357.80 222.29,353.16 232.02,364.76 241.76,360.12 251.49,348.52 261.23,371.72 270.96,378.68 280.70,376.36 290.43,391.44 300.17,355.48 309.90,371.72 319.64,320.67 329.37,325.31 339.11,350.84 348.84,407.68 358.58,369.40 368.31,360.12 378.05,393.76 387.78,394.92 397.52,386.80 407.25,385.64 416.99,374.04 426.72,383.32 436.46,362.44 446.19,378.68 455.93,376.36 465.66,400.72 475.40,329.95 485.13,369.40 494.87,374.04 504.60,376.36 514.34,393.76 524.07,367.08 533.81,389.12 543.54,410.00 553.28,346.20 563.01,369.40 572.75,406.52 582.48,355.48 592.22,357.80 601.95,383.32 611.69,376.36 621.42,306.75 631.16,381.00 640.89,371.72 650.63,392.60 660.36,355.48 670.10,391.44 679.83,403.04 689.57,376.36 699.30,406.52 709.04,405.36 718.77,399.56 728.51,389.12 738.24,357.80 747.98,401.88 757.71,390.28 767.45,389.12 777.18,413.48 786.92,403.04 796.65,411.16 806.39,391.44 816.12,398.40 825.86,410.00 835.59,382.16 845.33,421.61 855.06,427.41 864.80,391.44 874.53,394.92 884.27,398.40 894.00,394.66" fill="none" stroke="#be185d" stroke-width="2.3" stroke-linecap="round" stroke-linejoin="round" opacity="0.82"/>
<polyline points="86.00,392.39 193.08,587.88 300.17,668.63 407.25,614.54 514.34,654.89 621.42,591.34 728.51,638.17 835.59,610.89 894.00,664.37" fill="none" stroke="#be185d" stroke-width="2.0" stroke-linecap="round" stroke-linejoin="round" opacity="0.95" stroke-dasharray="6 5"/>
<circle cx="86.00" cy="392.39" r="3.4" fill="#ffffff" stroke="#be185d" stroke-width="1.8"/>
<circle cx="193.08" cy="587.88" r="3.4" fill="#ffffff" stroke="#be185d" stroke-width="1.8"/>
<circle cx="300.17" cy="668.63" r="3.4" fill="#ffffff" stroke="#be185d" stroke-width="1.8"/>
<circle cx="407.25" cy="614.54" r="3.4" fill="#ffffff" stroke="#be185d" stroke-width="1.8"/>
<circle cx="514.34" cy="654.89" r="3.4" fill="#ffffff" stroke="#be185d" stroke-width="1.8"/>
<circle cx="621.42" cy="591.34" r="3.4" fill="#ffffff" stroke="#be185d" stroke-width="1.8"/>
<circle cx="728.51" cy="638.17" r="3.4" fill="#ffffff" stroke="#be185d" stroke-width="1.8"/>
<circle cx="835.59" cy="610.89" r="3.4" fill="#ffffff" stroke="#be185d" stroke-width="1.8"/>
<circle cx="894.00" cy="664.37" r="3.4" fill="#ffffff" stroke="#be185d" stroke-width="1.8"/>
<text x="928" y="86" font-family="Inter, Segoe UI, Arial, sans-serif" font-size="13" font-weight="700" fill="#0f172a">Experiment</text>
<line x1="928" y1="106" x2="958" y2="106" stroke="#2563eb" stroke-width="3" stroke-linecap="round"/>
<text x="968" y="110" font-family="Inter, Segoe UI, Arial, sans-serif" font-size="12" fill="#0f172a">LR 5e-6</text>
<line x1="928" y1="134" x2="958" y2="134" stroke="#c2410c" stroke-width="3" stroke-linecap="round"/>
<text x="968" y="138" font-family="Inter, Segoe UI, Arial, sans-serif" font-size="12" fill="#0f172a">LR 7.5e-6</text>
<line x1="928" y1="162" x2="958" y2="162" stroke="#047857" stroke-width="3" stroke-linecap="round"/>
<text x="968" y="166" font-family="Inter, Segoe UI, Arial, sans-serif" font-size="12" fill="#0f172a">LR 1e-5</text>
<line x1="928" y1="190" x2="958" y2="190" stroke="#7c3aed" stroke-width="3" stroke-linecap="round"/>
<text x="968" y="194" font-family="Inter, Segoe UI, Arial, sans-serif" font-size="12" fill="#0f172a">LR 5e-6 + T_train=1.3</text>
<line x1="928" y1="218" x2="958" y2="218" stroke="#be185d" stroke-width="3" stroke-linecap="round"/>
<text x="968" y="222" font-family="Inter, Segoe UI, Arial, sans-serif" font-size="12" fill="#0f172a">LR 5e-6 + top-k=5</text>
<text x="928" y="264" font-family="Inter, Segoe UI, Arial, sans-serif" font-size="13" font-weight="700" fill="#0f172a">Metric</text>
<line x1="928" y1="284" x2="958" y2="284" stroke="#334155" stroke-width="2.5" stroke-linecap="round"/>
<text x="968" y="288" font-family="Inter, Segoe UI, Arial, sans-serif" font-size="12" fill="#0f172a">Gradient norm</text>
<line x1="928" y1="310" x2="958" y2="310" stroke="#334155" stroke-width="2.2" stroke-linecap="round" stroke-dasharray="6 5"/>
<circle cx="943" cy="310" r="3.2" fill="#ffffff" stroke="#334155" stroke-width="1.6"/>
<text x="968" y="314" font-family="Inter, Segoe UI, Arial, sans-serif" font-size="12" fill="#0f172a">Estimated signal</text>
</svg>
